<?xml version="1.0" encoding="UTF-8"?>
<!-- Do not edit this file with editors other than draw.io -->
<!DOCTYPE svg PUBLIC "-//W3C//DTD SVG 1.1//EN" "http://www.w3.org/Graphics/SVG/1.1/DTD/svg11.dtd">
<svg xmlns="http://www.w3.org/2000/svg" style="background: transparent; background-color: transparent; color-scheme: light dark;" xmlns:xlink="http://www.w3.org/1999/xlink" version="1.1" width="450px" height="381px" viewBox="0 0 450 381" content="&lt;mxfile host=&quot;app.diagrams.net&quot;&gt;&#10;  &lt;diagram name=&quot;Page-1&quot; id=&quot;w1GDqr9Nb5pIxSXRITBl&quot;&gt;&#10;    &lt;mxGraphModel dx=&quot;1414&quot; dy=&quot;814&quot; grid=&quot;1&quot; gridSize=&quot;10&quot; guides=&quot;1&quot; tooltips=&quot;1&quot; connect=&quot;1&quot; arrows=&quot;1&quot; fold=&quot;1&quot; page=&quot;1&quot; pageScale=&quot;1&quot; pageWidth=&quot;1100&quot; pageHeight=&quot;850&quot; math=&quot;0&quot; shadow=&quot;0&quot;&gt;&#10;      &lt;root&gt;&#10;        &lt;mxCell id=&quot;0&quot; /&gt;&#10;        &lt;mxCell id=&quot;1&quot; parent=&quot;0&quot; /&gt;&#10;        &lt;object label=&quot;Subnet&amp;lt;br&amp;gt;%subnet%.x&quot; placeholders=&quot;1&quot; subnet=&quot;192.168.0&quot; id=&quot;G3XaUe1dvDu-0jpuL5zr-1&quot;&gt;&#10;          &lt;mxCell parent=&quot;1&quot; style=&quot;ellipse;whiteSpace=wrap;html=1;strokeWidth=2;fillColor=#FAD9D5;fontSize=15;strokeColor=#D0CEE2;container=1;verticalAlign=top;spacingBottom=0;spacingTop=4;fontStyle=1;metaEdit=1;labelBackgroundColor=none;fontColor=#1A1A1A;sketch=1;curveFitting=1;jiggle=2;rounded=1;&quot; vertex=&quot;1&quot;&gt;&#10;            &lt;mxGeometry height=&quot;311&quot; width=&quot;409&quot; x=&quot;300&quot; y=&quot;270&quot; as=&quot;geometry&quot;&gt;&#10;              &lt;mxRectangle height=&quot;60&quot; width=&quot;250&quot; x=&quot;-576&quot; y=&quot;218&quot; as=&quot;alternateBounds&quot; /&gt;&#10;            &lt;/mxGeometry&gt;&#10;          &lt;/mxCell&gt;&#10;        &lt;/object&gt;&#10;        &lt;mxCell id=&quot;G3XaUe1dvDu-0jpuL5zr-2&quot; edge=&quot;1&quot; parent=&quot;G3XaUe1dvDu-0jpuL5zr-1&quot; source=&quot;G3XaUe1dvDu-0jpuL5zr-8&quot; style=&quot;edgeStyle=orthogonalEdgeStyle;rounded=1;html=1;endArrow=none;endFill=0;strokeColor=#09555B;strokeWidth=2;fontSize=12;fontColor=default;startSize=8;endSize=8;curved=1;labelBackgroundColor=none;sketch=1;curveFitting=1;jiggle=2;&quot; target=&quot;G3XaUe1dvDu-0jpuL5zr-5&quot; value=&quot;&quot;&gt;&#10;          &lt;mxGeometry relative=&quot;1&quot; as=&quot;geometry&quot; /&gt;&#10;        &lt;/mxCell&gt;&#10;        &lt;mxCell id=&quot;G3XaUe1dvDu-0jpuL5zr-3&quot; edge=&quot;1&quot; parent=&quot;G3XaUe1dvDu-0jpuL5zr-1&quot; source=&quot;G3XaUe1dvDu-0jpuL5zr-6&quot; style=&quot;edgeStyle=orthogonalEdgeStyle;html=1;endArrow=none;endFill=0;strokeWidth=2;fontSize=12;fontColor=default;strokeColor=#09555B;rounded=1;startSize=8;endSize=8;curved=0;labelBackgroundColor=none;sketch=1;curveFitting=1;jiggle=2;&quot; target=&quot;G3XaUe1dvDu-0jpuL5zr-8&quot;&gt;&#10;          &lt;mxGeometry relative=&quot;1&quot; as=&quot;geometry&quot;&gt;&#10;            &lt;Array as=&quot;points&quot;&gt;&#10;              &lt;mxPoint x=&quot;85&quot; y=&quot;182&quot; /&gt;&#10;              &lt;mxPoint x=&quot;205&quot; y=&quot;182&quot; /&gt;&#10;            &lt;/Array&gt;&#10;            &lt;mxPoint x=&quot;-6&quot; y=&quot;239&quot; as=&quot;targetPoint&quot; /&gt;&#10;          &lt;/mxGeometry&gt;&#10;        &lt;/mxCell&gt;&#10;        &lt;mxCell id=&quot;G3XaUe1dvDu-0jpuL5zr-4&quot; edge=&quot;1&quot; parent=&quot;G3XaUe1dvDu-0jpuL5zr-1&quot; source=&quot;G3XaUe1dvDu-0jpuL5zr-7&quot; style=&quot;edgeStyle=orthogonalEdgeStyle;html=1;endArrow=none;endFill=0;strokeWidth=2;fontSize=12;fontColor=default;strokeColor=#09555B;rounded=1;startSize=8;endSize=8;curved=0;labelBackgroundColor=none;sketch=1;curveFitting=1;jiggle=2;&quot; target=&quot;G3XaUe1dvDu-0jpuL5zr-8&quot;&gt;&#10;          &lt;mxGeometry relative=&quot;1&quot; as=&quot;geometry&quot;&gt;&#10;            &lt;Array as=&quot;points&quot;&gt;&#10;              &lt;mxPoint x=&quot;321&quot; y=&quot;182&quot; /&gt;&#10;              &lt;mxPoint x=&quot;205&quot; y=&quot;182&quot; /&gt;&#10;            &lt;/Array&gt;&#10;            &lt;mxPoint x=&quot;205&quot; y=&quot;211&quot; as=&quot;targetPoint&quot; /&gt;&#10;          &lt;/mxGeometry&gt;&#10;        &lt;/mxCell&gt;&#10;        &lt;object label=&quot;%subnet%.2&quot; placeholders=&quot;1&quot; id=&quot;G3XaUe1dvDu-0jpuL5zr-5&quot;&gt;&#10;          &lt;mxCell parent=&quot;G3XaUe1dvDu-0jpuL5zr-1&quot; style=&quot;image;html=1;image=img/lib/clip_art/computers/Monitor_Tower_128x128.png;fontFamily=Helvetica;fontSize=12;fontColor=#1A1A1A;align=center;strokeWidth=2;fillColor=#FAD9D5;fontStyle=1;verticalAlign=bottom;strokeColor=none;labelBackgroundColor=none;labelBorderColor=none;labelPosition=center;verticalLabelPosition=top;sketch=1;curveFitting=1;jiggle=2;rounded=1;&quot; vertex=&quot;1&quot;&gt;&#10;            &lt;mxGeometry height=&quot;79&quot; width=&quot;115&quot; x=&quot;147&quot; y=&quot;80&quot; as=&quot;geometry&quot; /&gt;&#10;          &lt;/mxCell&gt;&#10;        &lt;/object&gt;&#10;        &lt;object label=&quot;%subnet%.3&quot; placeholders=&quot;1&quot; id=&quot;G3XaUe1dvDu-0jpuL5zr-6&quot;&gt;&#10;          &lt;mxCell parent=&quot;G3XaUe1dvDu-0jpuL5zr-1&quot; style=&quot;image;html=1;image=img/lib/clip_art/computers/Laptop_128x128.png;fontFamily=Helvetica;fontSize=12;fontColor=#1A1A1A;align=center;strokeWidth=2;fillColor=#FAD9D5;fontStyle=1;verticalAlign=bottom;strokeColor=none;labelBackgroundColor=none;labelBorderColor=none;labelPosition=center;verticalLabelPosition=top;sketch=1;curveFitting=1;jiggle=2;rounded=1;&quot; vertex=&quot;1&quot;&gt;&#10;            &lt;mxGeometry height=&quot;80&quot; width=&quot;80&quot; x=&quot;45&quot; y=&quot;80&quot; as=&quot;geometry&quot; /&gt;&#10;          &lt;/mxCell&gt;&#10;        &lt;/object&gt;&#10;        &lt;object label=&quot;%subnet%.1&quot; placeholders=&quot;1&quot; id=&quot;G3XaUe1dvDu-0jpuL5zr-7&quot;&gt;&#10;          &lt;mxCell parent=&quot;G3XaUe1dvDu-0jpuL5zr-1&quot; style=&quot;image;html=1;image=img/lib/clip_art/computers/Mainframe_128x128.png;strokeColor=none;strokeWidth=2;fillColor=#FAD9D5;fontSize=12;fontColor=#1A1A1A;labelBackgroundColor=none;fontStyle=1;labelBorderColor=none;labelPosition=center;verticalLabelPosition=top;align=center;verticalAlign=bottom;sketch=1;curveFitting=1;jiggle=2;rounded=1;&quot; vertex=&quot;1&quot;&gt;&#10;            &lt;mxGeometry height=&quot;80&quot; width=&quot;80&quot; x=&quot;281&quot; y=&quot;79&quot; as=&quot;geometry&quot; /&gt;&#10;          &lt;/mxCell&gt;&#10;        &lt;/object&gt;&#10;        &lt;mxCell id=&quot;G3XaUe1dvDu-0jpuL5zr-8&quot; parent=&quot;G3XaUe1dvDu-0jpuL5zr-1&quot; style=&quot;image;html=1;image=img/lib/clip_art/networking/Switch_128x128.png;strokeColor=none;strokeWidth=2;fillColor=#FAD9D5;fontSize=12;labelBackgroundColor=none;fontStyle=1;fontColor=#1A1A1A;sketch=1;curveFitting=1;jiggle=2;rounded=1;&quot; value=&quot;Ethernet Switch&quot; vertex=&quot;1&quot;&gt;&#10;          &lt;mxGeometry height=&quot;42&quot; width=&quot;80&quot; x=&quot;165&quot; y=&quot;218&quot; as=&quot;geometry&quot; /&gt;&#10;        &lt;/mxCell&gt;&#10;        &lt;mxCell id=&quot;G3XaUe1dvDu-0jpuL5zr-9&quot; edge=&quot;1&quot; parent=&quot;1&quot; source=&quot;G3XaUe1dvDu-0jpuL5zr-10&quot; style=&quot;edgeStyle=none;curved=1;html=1;strokeWidth=2;fontSize=12;endArrow=none;endFill=0;rounded=1;fontColor=default;strokeColor=#09555B;startSize=8;endSize=8;labelBackgroundColor=none;sketch=1;curveFitting=1;jiggle=2;&quot; target=&quot;G3XaUe1dvDu-0jpuL5zr-8&quot;&gt;&#10;          &lt;mxGeometry relative=&quot;1&quot; as=&quot;geometry&quot;&gt;&#10;            &lt;mxPoint x=&quot;528&quot; y=&quot;520&quot; as=&quot;targetPoint&quot; /&gt;&#10;          &lt;/mxGeometry&gt;&#10;        &lt;/mxCell&gt;&#10;        &lt;mxCell id=&quot;G3XaUe1dvDu-0jpuL5zr-10&quot; parent=&quot;1&quot; style=&quot;image;html=1;image=img/lib/clip_art/networking/Switch_128x128.png;strokeColor=none;strokeWidth=2;fillColor=#FAD9D5;fontSize=12;fontColor=#1A1A1A;fontStyle=1;labelBackgroundColor=none;sketch=1;curveFitting=1;jiggle=2;rounded=1;&quot; value=&quot;Concentrator&amp;lt;br&amp;gt;&quot; vertex=&quot;1&quot;&gt;&#10;          &lt;mxGeometry height=&quot;53&quot; width=&quot;80&quot; x=&quot;669&quot; y=&quot;576&quot; as=&quot;geometry&quot; /&gt;&#10;        &lt;/mxCell&gt;&#10;      &lt;/root&gt;&#10;    &lt;/mxGraphModel&gt;&#10;  &lt;/diagram&gt;&#10;&lt;/mxfile&gt;&#10;" resource="https://app.diagrams.net/?mode=github#HNh-em0n%2FQDoc%2Fmain%2FBCS%2FComputer%20and%20ICT%2F00.Overview%2Fconnection.drawio.svg#%7B%22pageId%22%3A%22w1GDqr9Nb5pIxSXRITBl%22%7D"><defs><clipPath id="mx-clippath-inset-0-0-0-0-round-15-4" clipPathUnits="objectBoundingBox"><rect x="0" y="0" width="1" height="1" rx="0.15" ry="0.15"/></clipPath><clipPath id="mx-clippath-inset-0-0-0-0-round-15-4" clipPathUnits="objectBoundingBox"><rect x="0" y="0" width="1" height="1" rx="0.15" ry="0.15"/></clipPath><clipPath id="mx-clippath-inset-0-0-0-0-round-15-4" clipPathUnits="objectBoundingBox"><rect x="0" y="0" width="1" height="1" rx="0.15" ry="0.15"/></clipPath><clipPath id="mx-clippath-inset-0-0-0-0-round-15-4" clipPathUnits="objectBoundingBox"><rect x="0" y="0" width="1" height="1" rx="0.15" ry="0.15"/></clipPath><clipPath id="mx-clippath-inset-0-0-0-0-round-14-999999999999998-1" clipPathUnits="objectBoundingBox"><rect x="0" y="0" width="1" height="1" rx="0.15" ry="0.15"/></clipPath></defs><g><g data-cell-id="0"><g data-cell-id="1"><g data-cell-id="G3XaUe1dvDu-0jpuL5zr-1"><g><ellipse cx="205.5" cy="156.5" rx="204.5" ry="155.5" fill="none" stroke="none" pointer-events="all"/><path d="M 35.9 70.27 C 35.9 70.27 35.9 70.27 35.9 70.27 M 35.9 70.27 C 35.9 70.27 35.9 70.27 35.9 70.27 M 12.42 109.48 C 29.34 88.96 48.51 63.52 74.74 37.78 M 12.42 109.48 C 25.07 91.02 41.49 73.55 74.74 37.78 M 17.8 115.48 C 32.07 99.28 50.77 78.25 82.75 40.76 M 17.8 115.48 C 39.94 90.2 58.43 65.96 82.75 40.76 M 12.03 134.31 C 25.86 116.15 44.01 89.76 101.25 31.67 M 12.03 134.31 C 29.58 114.7 49.43 90.75 101.25 31.67 M 4.29 155.41 C 40.22 109.49 78.19 66.12 128.28 12.77 M 4.29 155.41 C 40.22 107.56 80.29 62.76 128.28 12.77 M 6.39 165.19 C 39.84 122.49 82.83 76.81 140.88 10.47 M 6.39 165.19 C 58.87 107.7 110.57 50.24 140.88 10.47 M 8.49 174.96 C 61.08 111.6 110.79 50.33 153.48 8.17 M 8.49 174.96 C 40.14 137.7 73.13 99.85 153.48 8.17 M 10.59 184.74 C 42.67 149.9 71.32 109.74 165.42 6.63 M 10.59 184.74 C 59.62 133.34 104.79 76.79 165.42 6.63 M 9.41 198.29 C 61.35 133.64 112.05 78.73 178.02 4.33 M 9.41 198.29 C 48.61 152.02 88.47 104.63 178.02 4.33 M 14.14 205.05 C 72.04 138.59 129.02 75.39 187.34 5.81 M 14.14 205.05 C 57.2 155.83 96.82 106.66 187.34 5.81 M 18.21 212.56 C 83.42 140.81 145.26 72.22 197.31 6.53 M 18.21 212.56 C 61.93 159.93 106.52 107.18 197.31 6.53 M 22.28 220.08 C 59.78 177.5 103.48 131.03 207.28 7.25 M 22.28 220.08 C 75.09 156.57 130.16 93.96 207.28 7.25 M 26.35 227.59 C 97.2 149.53 169.54 68.31 217.26 7.97 M 26.35 227.59 C 77.03 168.79 127.39 110.78 217.26 7.97 M 31.07 234.35 C 92.93 159.5 158.25 83.62 227.89 7.93 M 31.07 234.35 C 83.93 174.82 135.45 116.05 227.89 7.93 M 36.45 240.35 C 75.4 193.75 118.66 146.21 239.83 6.39 M 36.45 240.35 C 80.03 188.63 124.82 138.56 239.83 6.39 M 42.49 245.6 C 115.96 159.66 190.77 76 248.49 8.62 M 42.49 245.6 C 121.33 153.57 199.24 65.91 248.49 8.62 M 47.87 251.6 C 115.3 168.35 186.66 90.61 257.81 10.09 M 47.87 251.6 C 118.17 169.96 191.74 85.25 257.81 10.09 M 53.91 256.85 C 113.89 191.51 165.26 123.39 266.47 12.32 M 53.91 256.85 C 136.79 164.46 217.78 69.79 266.47 12.32 M 59.95 262.1 C 104.82 209.46 147.62 158.41 275.13 14.55 M 59.95 262.1 C 112.35 204.35 165.2 141.09 275.13 14.55 M 65.33 268.1 C 120.8 202.67 176.82 139.58 284.45 16.03 M 65.33 268.1 C 124.69 198.39 180.71 132.42 284.45 16.03 M 71.37 273.35 C 143.76 191.87 216.08 111.3 293.11 18.26 M 71.37 273.35 C 159.61 175.77 247.34 74.76 293.11 18.26 M 78.06 277.84 C 154.93 191.84 235.75 97.72 300.46 22 M 78.06 277.84 C 147.3 200.37 213.11 123.28 300.46 22 M 85.41 281.58 C 160.57 198.18 228.82 119.82 307.81 25.74 M 85.41 281.58 C 133.43 228.49 180.9 171.4 307.81 25.74 M 92.76 285.32 C 166.04 202.21 238.31 115.22 314.51 30.23 M 92.76 285.32 C 143.52 230.97 189.53 176.33 314.51 30.23 M 99.45 289.81 C 168.47 212.61 234.78 129.89 321.86 33.97 M 99.45 289.81 C 148.64 231.79 200.76 170.66 321.86 33.97 M 106.8 293.55 C 172.82 217.03 244.88 134.9 329.21 37.71 M 106.8 293.55 C 158.66 237.1 207.61 180.4 329.21 37.71 M 113.5 298.05 C 189.45 208.04 268.81 111.12 335.9 42.2 M 113.5 298.05 C 184.64 216.64 255.56 135.09 335.9 42.2 M 120.19 302.54 C 200.84 209.87 282.6 117.39 343.91 45.19 M 120.19 302.54 C 208.99 205.98 295.39 106.01 343.91 45.19 M 129.51 304.02 C 211.18 206.2 296.88 110.95 349.94 50.43 M 129.51 304.02 C 182.14 251.26 229.03 195.14 349.94 50.43 M 138.17 306.25 C 211.79 224.9 278.01 142.85 355.98 55.68 M 138.17 306.25 C 197.66 238.06 259.17 170.05 355.98 55.68 M 147.49 307.72 C 203.11 253.32 251.11 196.72 362.68 60.18 M 147.49 307.72 C 203.97 242.58 259.82 178.92 362.68 60.18 M 156.15 309.95 C 232.84 225.14 310.98 133.13 368.71 65.42 M 156.15 309.95 C 216.41 239.81 273.85 173.7 368.71 65.42 M 165.47 311.43 C 220.31 250.78 275.18 193.22 374.75 70.67 M 165.47 311.43 C 213.84 255.92 258.65 202.88 374.75 70.67 M 176.1 311.39 C 226.33 256.84 273.64 196.98 380.79 75.92 M 176.1 311.39 C 239.64 236.41 303.32 163.45 380.79 75.92 M 186.07 312.11 C 249.92 239.32 315.89 170.48 384.86 83.43 M 186.07 312.11 C 241.94 247.23 295.25 186.3 384.86 83.43 M 196.7 312.08 C 238.65 265.63 281.24 215.01 388.93 90.95 M 196.7 312.08 C 251.73 245.98 309.21 179.05 388.93 90.95 M 207.33 312.04 C 276.17 238.5 341.09 160.98 393 98.46 M 207.33 312.04 C 252.06 259.34 298.71 205.62 393 98.46 M 217.96 312.01 C 289.36 232.59 364.31 151.63 397.07 105.97 M 217.96 312.01 C 276.09 249.91 333.81 183.61 397.07 105.97 M 229.25 311.22 C 273.96 259.55 315.89 207.23 401.79 112.73 M 229.25 311.22 C 284.44 246.37 341.55 182.33 401.79 112.73 M 241.85 308.92 C 296.88 245.27 349.59 179.73 406.52 119.49 M 241.85 308.92 C 277.58 268.82 312.9 226.39 406.52 119.49 M 254.45 306.62 C 312.77 242.38 368.87 177.02 408.62 129.26 M 254.45 306.62 C 288.5 270.9 321.73 232.31 408.62 129.26 M 267.04 304.32 C 295.98 270.63 324.05 234.8 410.72 139.04 M 267.04 304.32 C 299.1 268.2 328.12 235.12 410.72 139.04 M 279.64 302.02 C 333.52 244.76 381.71 183.01 412.82 148.82 M 279.64 302.02 C 323.67 255.08 365.59 205.69 412.82 148.82 M 288.3 304.25 C 327.03 257.78 365.02 211.33 411.64 162.37 M 288.3 304.25 C 325.43 259.89 359.95 222.61 411.64 162.37 M 305.49 296.67 C 333.66 269.13 361.55 233.05 406.53 180.45 M 305.49 296.67 C 343.02 250.27 382.01 209.17 406.53 180.45 M 322.69 289.09 C 346.9 256.3 375 223.32 401.41 198.53 M 322.69 289.09 C 354.72 250.84 385.25 215.22 401.41 198.53 M 339.22 282.26 C 362.99 254.75 383.64 230.74 403.51 208.3 M 339.22 282.26 C 354.05 265.83 373.32 245.01 403.51 208.3" fill="none" stroke="#fad9d5" stroke-linejoin="round" stroke-linecap="round" stroke-miterlimit="10" pointer-events="all" style="stroke: light-dark(rgb(250, 217, 213), rgb(68, 39, 36));"/><path d="M 126.82 11.59 C 142.31 3.61 163.93 3.1 182.5 2.03 C 201.07 0.95 219.52 2.58 238.24 5.13 C 256.95 7.69 277.62 11.07 294.8 17.36 C 311.99 23.64 327.22 33.29 341.34 42.85 C 355.45 52.42 369.45 62.82 379.5 74.77 C 389.55 86.73 396.42 100.13 401.62 114.59 C 406.83 129.04 411.25 146.62 410.74 161.52 C 410.23 176.42 404.8 190.06 398.58 203.99 C 392.35 217.92 384.2 232.75 373.38 245.11 C 362.57 257.46 348.6 268.99 333.7 278.11 C 318.8 287.23 301.57 294.51 283.99 299.85 C 266.4 305.19 246.66 308.6 228.2 310.18 C 209.75 311.75 192.21 311.48 173.26 309.27 C 154.31 307.07 132.19 303.53 114.5 296.94 C 96.8 290.35 80.92 279.87 67.09 269.73 C 53.25 259.6 41.18 248.16 31.5 236.12 C 21.82 224.07 14.38 211.64 9 197.44 C 3.61 183.24 -1.26 165.4 -0.81 150.93 C -0.35 136.45 5.59 124.06 11.72 110.59 C 17.86 97.12 25.11 82.59 36.02 70.13 C 46.93 57.67 57.83 46.42 77.17 35.83 C 96.51 25.23 134.88 11.74 152.07 6.56 C 169.25 1.38 179.47 2.57 180.29 4.76 M 74.01 38.82 C 85.6 28.05 101.44 21.34 118.93 15.43 C 136.42 9.51 159.93 5.01 178.96 3.33 C 197.98 1.66 214.16 3.77 233.08 5.37 C 252.01 6.97 275.22 7.38 292.5 12.95 C 309.78 18.53 322.36 28.51 336.76 38.81 C 351.17 49.12 368.11 62.47 378.92 74.79 C 389.72 87.11 396.41 99.12 401.61 112.71 C 406.82 126.3 409.69 141.74 410.15 156.34 C 410.61 170.95 409.81 186.01 404.39 200.34 C 398.97 214.66 387.97 230.06 377.61 242.29 C 367.26 254.51 356.44 264.41 342.24 273.69 C 328.05 282.97 310.21 292.02 292.45 297.96 C 274.7 303.9 255.58 307.2 235.71 309.35 C 215.84 311.49 192.62 312.57 173.24 310.82 C 153.86 309.08 136.59 304.81 119.42 298.87 C 102.25 292.94 84.36 285.46 70.21 275.23 C 56.06 265 44.77 249.59 34.53 237.5 C 24.29 225.41 14.14 216.32 8.76 202.71 C 3.37 189.11 1.7 170.42 2.22 155.85 C 2.74 141.27 6.25 128.71 11.87 115.26 C 17.49 101.81 25.77 87.53 35.94 75.14 C 46.1 62.74 66.04 46.77 72.85 40.91 C 79.66 35.05 74.79 38.45 76.8 39.97" fill="none" stroke="#d0cee2" stroke-width="2" stroke-linejoin="round" stroke-linecap="round" stroke-miterlimit="10" pointer-events="all" style="stroke: light-dark(rgb(208, 206, 226), rgb(59, 57, 74));"/></g><g><g><switch><foreignObject style="overflow: visible; text-align: left;" pointer-events="none" width="100%" height="100%" requiredFeatures="http://www.w3.org/TR/SVG11/feature#Extensibility"><div xmlns="http://www.w3.org/1999/xhtml" style="display: flex; align-items: unsafe flex-start; justify-content: unsafe center; width: 407px; height: 1px; padding-top: 12px; margin-left: 2px;"><div style="box-sizing: border-box; font-size: 0; text-align: center; color: #1A1A1A; "><div style="display: inline-block; font-size: 15px; font-family: Helvetica; color: light-dark(#1A1A1A, #d7d7d7); line-height: 1.2; pointer-events: all; font-weight: bold; white-space: normal; word-wrap: normal; ">Subnet<br />192.168.0.x</div></div></div></foreignObject><text x="206" y="27" fill="#1A1A1A" font-family="Helvetica" font-size="15px" text-anchor="middle" font-weight="bold">Subnet...</text></switch></g></g><g data-cell-id="G3XaUe1dvDu-0jpuL5zr-2"><g><path d="M 206 219 Q 206 189.5 205.5 160" fill="none" stroke="none" pointer-events="stroke"/><path d="M 206 219 C 205.82 197.77 206.39 182.99 205.5 160 M 206 219 C 201.76 196.36 207.21 177.27 205.5 160" fill="none" stroke="#09555b" stroke-width="2" stroke-linejoin="round" stroke-linecap="round" stroke-miterlimit="10" pointer-events="stroke" style="stroke: light-dark(rgb(9, 85, 91), rgb(126, 191, 196));"/></g></g><g data-cell-id="G3XaUe1dvDu-0jpuL5zr-3"><g><path d="M 86 161 L 86 173 Q 86 183 96 183 L 196 183 Q 206 183 206 193 L 206 219" fill="none" stroke="none" pointer-events="stroke"/><path d="M 86 161 C 86.57 165.89 86.41 167.81 86 173 M 86 161 C 86.29 164.45 86.46 169.51 86 173 M 86 173 C 82.05 177.86 87.35 179.94 96 183 M 86 173 C 84.48 178.48 88.81 182.58 96 183 M 96 183 C 138.42 185.67 174.6 182.19 196 183 M 96 183 C 136.84 182.2 175.39 181.75 196 183 M 196 183 C 206.4 183.38 204.61 189.03 206 193 M 196 183 C 202.57 185.81 202.69 185.27 206 193 M 206 193 C 210.11 200.64 205.88 204.02 206 219 M 206 193 C 204.15 201.6 206.85 210.89 206 219" fill="none" stroke="#09555b" stroke-width="2" stroke-linejoin="round" stroke-linecap="round" stroke-miterlimit="10" pointer-events="stroke" style="stroke: light-dark(rgb(9, 85, 91), rgb(126, 191, 196));"/></g></g><g data-cell-id="G3XaUe1dvDu-0jpuL5zr-4"><g><path d="M 322 160 L 322 173 Q 322 183 312 183 L 216 183 Q 206 183 206 193 L 206 219" fill="none" stroke="none" pointer-events="stroke"/><path d="M 322 160 C 321.18 163.95 319.47 166.29 322 173 M 322 160 C 321.3 164.95 320.93 170.35 322 173 M 322 173 C 319.45 182.92 322.44 179.19 312 183 M 322 173 C 325.48 184.2 320.07 181.45 312 183 M 312 183 C 294.86 186.3 271.52 180.78 216 183 M 312 183 C 273.89 181.98 237.86 184.98 216 183 M 216 183 C 210.26 184.18 209.58 189.59 206 193 M 216 183 C 210.46 181.34 209.16 182.29 206 193 M 206 193 C 207.83 196.62 203.56 208.45 206 219 M 206 193 C 206.07 201.53 204.71 213.94 206 219" fill="none" stroke="#09555b" stroke-width="2" stroke-linejoin="round" stroke-linecap="round" stroke-miterlimit="10" pointer-events="stroke" style="stroke: light-dark(rgb(9, 85, 91), rgb(126, 191, 196));"/></g></g><g data-cell-id="G3XaUe1dvDu-0jpuL5zr-5"><g><image x="148" y="81" width="115" height="79" xlink:href="https://app.diagrams.net/img/lib/clip_art/computers/Monitor_Tower_128x128.png" clip-path="url(#mx-clippath-inset-0-0-0-0-round-15-4)"/></g><g><g><switch><foreignObject style="overflow: visible; text-align: left;" pointer-events="none" width="100%" height="100%" requiredFeatures="http://www.w3.org/TR/SVG11/feature#Extensibility"><div xmlns="http://www.w3.org/1999/xhtml" style="display: flex; align-items: unsafe flex-end; justify-content: unsafe center; width: 1px; height: 1px; padding-top: 78px; margin-left: 206px;"><div style="box-sizing: border-box; font-size: 0; text-align: center; color: #1A1A1A; "><div style="display: inline-block; font-size: 12px; font-family: Helvetica; color: light-dark(#1A1A1A, #d7d7d7); line-height: 1.2; pointer-events: all; font-weight: bold; white-space: nowrap; ">192.168.0.2</div></div></div></foreignObject><text x="206" y="78" fill="#1A1A1A" font-family="Helvetica" font-size="12px" text-anchor="middle" font-weight="bold">192.168.0.2</text></switch></g></g></g><g data-cell-id="G3XaUe1dvDu-0jpuL5zr-6"><g><image x="46" y="81" width="80" height="80" xlink:href="https://app.diagrams.net/img/lib/clip_art/computers/Laptop_128x128.png" clip-path="url(#mx-clippath-inset-0-0-0-0-round-15-4)"/></g><g><g><switch><foreignObject style="overflow: visible; text-align: left;" pointer-events="none" width="100%" height="100%" requiredFeatures="http://www.w3.org/TR/SVG11/feature#Extensibility"><div xmlns="http://www.w3.org/1999/xhtml" style="display: flex; align-items: unsafe flex-end; justify-content: unsafe center; width: 1px; height: 1px; padding-top: 78px; margin-left: 86px;"><div style="box-sizing: border-box; font-size: 0; text-align: center; color: #1A1A1A; "><div style="display: inline-block; font-size: 12px; font-family: Helvetica; color: light-dark(#1A1A1A, #d7d7d7); line-height: 1.2; pointer-events: all; font-weight: bold; white-space: nowrap; ">192.168.0.3</div></div></div></foreignObject><text x="86" y="78" fill="#1A1A1A" font-family="Helvetica" font-size="12px" text-anchor="middle" font-weight="bold">192.168.0.3</text></switch></g></g></g><g data-cell-id="G3XaUe1dvDu-0jpuL5zr-7"><g><image x="282" y="80" width="80" height="80" xlink:href="https://app.diagrams.net/img/lib/clip_art/computers/Mainframe_128x128.png" clip-path="url(#mx-clippath-inset-0-0-0-0-round-15-4)"/></g><g><g><switch><foreignObject style="overflow: visible; text-align: left;" pointer-events="none" width="100%" height="100%" requiredFeatures="http://www.w3.org/TR/SVG11/feature#Extensibility"><div xmlns="http://www.w3.org/1999/xhtml" style="display: flex; align-items: unsafe flex-end; justify-content: unsafe center; width: 1px; height: 1px; padding-top: 77px; margin-left: 322px;"><div style="box-sizing: border-box; font-size: 0; text-align: center; color: #1A1A1A; "><div style="display: inline-block; font-size: 12px; font-family: Helvetica; color: light-dark(#1A1A1A, #d7d7d7); line-height: 1.2; pointer-events: all; font-weight: bold; white-space: nowrap; ">192.168.0.1</div></div></div></foreignObject><text x="322" y="77" fill="#1A1A1A" font-family="Helvetica" font-size="12px" text-anchor="middle" font-weight="bold">192.168.0.1</text></switch></g></g></g><g data-cell-id="G3XaUe1dvDu-0jpuL5zr-8"><g><image x="166" y="219" width="80" height="42" xlink:href="https://app.diagrams.net/img/lib/clip_art/networking/Switch_128x128.png" clip-path="url(#mx-clippath-inset-0-0-0-0-round-15-4)"/></g><g><g><switch><foreignObject style="overflow: visible; text-align: left;" pointer-events="none" width="100%" height="100%" requiredFeatures="http://www.w3.org/TR/SVG11/feature#Extensibility"><div xmlns="http://www.w3.org/1999/xhtml" style="display: flex; align-items: unsafe flex-start; justify-content: unsafe center; width: 1px; height: 1px; padding-top: 268px; margin-left: 206px;"><div style="box-sizing: border-box; font-size: 0; text-align: center; color: #1A1A1A; "><div style="display: inline-block; font-size: 12px; font-family: Helvetica; color: light-dark(#1A1A1A, #d7d7d7); line-height: 1.2; pointer-events: all; font-weight: bold; white-space: nowrap; ">Ethernet Switch</div></div></div></foreignObject><text x="206" y="280" fill="#1A1A1A" font-family="Helvetica" font-size="12px" text-anchor="middle" font-weight="bold">Ethernet Swit...</text></switch></g></g></g></g><g data-cell-id="G3XaUe1dvDu-0jpuL5zr-9"><g><path d="M 370 315.17 Q 370 315.17 246 258.33" fill="none" stroke="none" pointer-events="stroke"/><path d="M 370 315.17 C 369.83 318.37 330.9 299.55 246 258.33 M 370 315.17 C 367.48 311.65 325.77 298.61 246 258.33" fill="none" stroke="#09555b" stroke-width="2" stroke-linejoin="round" stroke-linecap="round" stroke-miterlimit="10" pointer-events="stroke" style="stroke: light-dark(rgb(9, 85, 91), rgb(126, 191, 196));"/></g></g><g data-cell-id="G3XaUe1dvDu-0jpuL5zr-10"><g><image x="370" y="307" width="80" height="53" xlink:href="https://app.diagrams.net/img/lib/clip_art/networking/Switch_128x128.png" clip-path="url(#mx-clippath-inset-0-0-0-0-round-14-999999999999998-1)"/></g><g><g><switch><foreignObject style="overflow: visible; text-align: left;" pointer-events="none" width="100%" height="100%" requiredFeatures="http://www.w3.org/TR/SVG11/feature#Extensibility"><div xmlns="http://www.w3.org/1999/xhtml" style="display: flex; align-items: unsafe flex-start; justify-content: unsafe center; width: 1px; height: 1px; padding-top: 367px; margin-left: 410px;"><div style="box-sizing: border-box; font-size: 0; text-align: center; color: #1A1A1A; "><div style="display: inline-block; font-size: 12px; font-family: Helvetica; color: light-dark(#1A1A1A, #d7d7d7); line-height: 1.2; pointer-events: all; font-weight: bold; white-space: nowrap; ">Concentrator<br /></div></div></div></foreignObject><text x="410" y="379" fill="#1A1A1A" font-family="Helvetica" font-size="12px" text-anchor="middle" font-weight="bold">Concentrator&#xa;</text></switch></g></g></g></g></g></g><switch><g requiredFeatures="http://www.w3.org/TR/SVG11/feature#Extensibility"/><a transform="translate(0,-5)" xlink:href="https://www.drawio.com/doc/faq/svg-export-text-problems" target="_blank"><text text-anchor="middle" font-size="10px" x="50%" y="100%">Text is not SVG - cannot display</text></a></switch></svg>