<svg xmlns:xlink="http://www.w3.org/1999/xlink" height="731" viewBox="0 0 1083 731" xmlns:ev="http://www.w3.org/2001/xml-events" xmlns="http://www.w3.org/2000/svg" width="1083"><defs/><g id="page1" transform="translate(5.5,5.5)"><rect height="721" y="0" x="0" fill="none" width="1073"/><g id="group1" transform="translate(38.857000,151.800197)"><path fill-rule="nonzero" stroke-width="2.333329916000366" d="M.0,49.0C.0,21.9,21.9,.0,49.0,.0C76.1,.0,98.0,21.9,98.0,49.0C98.0,76.1,76.1,98.0,49.0,98.0C21.9,98.0,.0,76.1,.0,49.0z" id="shape2" stroke="#2a7d72" fill="#d0f0ea" transform="translate(316.000000,70.000000)"/><g id="shape3" transform="translate(316.000000,119.000000)"><path stroke-width="2.666670083999634" d="M.0,.0L-50.4,.0" stroke="#379e90" fill="none"/><path stroke-width="1" d="M-60.0,.0L-48.7,6.5C-49.8,4.6,-50.4,2.4,-50.4,.0C-50.4,-2.4,-49.8,-4.6,-48.7,-6.5L-60.0,.0" stroke="#379e90" stroke-linecap="round" fill="#379e90"/></g><path fill-rule="nonzero" stroke-width="2.333329916000366" d="M.0,49.0C.0,21.9,21.9,.0,49.0,.0C76.1,.0,98.0,21.9,98.0,49.0C98.0,76.1,76.1,98.0,49.0,98.0C21.9,98.0,.0,76.1,.0,49.0z" id="shape4" stroke="#2a7d72" fill="#d0f0ea" transform="translate(158.000000,70.000000)"/><g id="shape5" transform="translate(158.000000,119.000000)"><path stroke-width="2.666670083999634" d="M.0,.0L-50.4,.0" stroke="#379e90" fill="none"/><path stroke-width="1" d="M-60.0,.0L-48.7,6.5C-49.8,4.6,-50.4,2.4,-50.4,.0C-50.4,-2.4,-49.8,-4.6,-48.7,-6.5L-60.0,.0" stroke="#379e90" stroke-linecap="round" fill="#379e90"/></g><path fill-rule="nonzero" stroke-width="2.333329916000366" d="M.0,49.0C.0,21.9,21.9,.0,49.0,.0C76.1,.0,98.0,21.9,98.0,49.0C98.0,76.1,76.1,98.0,49.0,98.0C21.9,98.0,.0,76.1,.0,49.0z" id="shape6" stroke="#2a7d72" fill="#d0f0ea" transform="translate(0.000000,70.000000)"/><path fill-rule="nonzero" stroke-width="2.333329916000366" d="M.0,49.0C.0,21.9,21.9,.0,49.0,.0C76.1,.0,98.0,21.9,98.0,49.0C98.0,76.1,76.1,98.0,49.0,98.0C21.9,98.0,.0,76.1,.0,49.0z" id="shape7" stroke="#2a7d72" fill="#ffd8d7" transform="translate(418.000000,229.000000)"/><path fill-rule="nonzero" stroke-width="2.333329916000366" d="M.0,49.0C.0,21.9,21.9,.0,49.0,.0C76.1,.0,98.0,21.9,98.0,49.0C98.0,76.1,76.1,98.0,49.0,98.0C21.9,98.0,.0,76.1,.0,49.0z" id="shape8" stroke="#2a7d72" fill="#44bdad" transform="translate(474.000000,70.000000)"/><path fill-rule="nonzero" stroke-width="2.333329916000366" d="M.0,49.0C.0,21.9,21.9,.0,49.0,.0C76.1,.0,98.0,21.9,98.0,49.0C98.0,76.1,76.1,98.0,49.0,98.0C21.9,98.0,.0,76.1,.0,49.0z" id="shape9" stroke="#2a7d72" fill="#44bdad" transform="translate(632.000000,70.000000)"/><g id="shape10" transform="translate(632.000000,119.000000)"><path stroke-width="2.666670083999634" d="M.0,.0L-50.4,.0" stroke="#379e90" fill="none"/><path stroke-width="1" d="M-60.0,.0L-48.7,6.5C-49.8,4.6,-50.4,2.4,-50.4,.0C-50.4,-2.4,-49.8,-4.6,-48.7,-6.5L-60.0,.0" stroke="#379e90" stroke-linecap="round" fill="#379e90"/></g><g id="shape11" transform="translate(474.000000,119.000000)"><path stroke-width="2.666670083999634" d="M.0,.0L-50.4,.0" stroke="#379e90" fill="none"/><path stroke-width="1" d="M-60.0,.0L-48.7,6.5C-49.8,4.6,-50.4,2.4,-50.4,.0C-50.4,-2.4,-49.8,-4.6,-48.7,-6.5L-60.0,.0" stroke="#379e90" stroke-linecap="round" fill="#379e90"/></g><g id="shape12" transform="translate(467.000000,229.000000)"><path stroke-width="2.666670083999634" d="M.0,.0L.0,-17.0C.0,-25.8,-7.2,-33.0,-16.0,-33.0L-88.0,-33.0C-95.7,-33.0,-102.0,-39.3,-102.0,-47.0L-102.0,-51.4" stroke="#868686" fill="none"/><path stroke-width="1" d="M-102.0,-61.0L-108.5,-49.7C-106.6,-50.8,-104.4,-51.4,-102.0,-51.4C-99.6,-51.4,-97.4,-50.8,-95.5,-49.7L-102.0,-61.0" stroke="#868686" stroke-linecap="round" fill="#868686"/></g><path fill-rule="nonzero" stroke-width="2.333329916000366" d="M.0,49.0C.0,21.9,21.9,.0,49.0,.0C76.1,.0,98.0,21.9,98.0,49.0C98.0,76.1,76.1,98.0,49.0,98.0C21.9,98.0,.0,76.1,.0,49.0z" id="shape13" stroke="#2a7d72" fill="#ffa3a0" transform="translate(576.000000,229.000000)"/><path fill-rule="nonzero" stroke-width="2.333329916000366" d="M.0,49.0C.0,21.9,21.9,.0,49.0,.0C76.1,.0,98.0,21.9,98.0,49.0C98.0,76.1,76.1,98.0,49.0,98.0C21.9,98.0,.0,76.1,.0,49.0z" id="shape14" stroke="#2a7d72" fill="#ffa3a0" transform="translate(734.000000,229.000000)"/><g id="shape15" transform="translate(576.000000,278.000000)"><path stroke-width="2.666670083999634" d="M.0,.0L-50.4,.0" stroke="#e16e6a" fill="none"/><path stroke-width="1" d="M-60.0,.0L-48.7,6.5C-49.8,4.6,-50.4,2.4,-50.4,.0C-50.4,-2.4,-49.8,-4.6,-48.7,-6.5L-60.0,.0" stroke="#e16e6a" stroke-linecap="round" fill="#e16e6a"/></g><g id="shape16" transform="translate(734.000000,278.000000)"><path stroke-width="2.666670083999634" d="M.0,.0L-50.4,.0" stroke="#e16e6a" fill="none"/><path stroke-width="1" d="M-60.0,.0L-48.7,6.5C-49.8,4.6,-50.4,2.4,-50.4,.0C-50.4,-2.4,-49.8,-4.6,-48.7,-6.5L-60.0,.0" stroke="#e16e6a" stroke-linecap="round" fill="#e16e6a"/></g><path fill-rule="nonzero" stroke-width="1" d="M59.0,21.8L17.4,21.8L17.4,29.0L.0,14.5L17.4,.0L17.4,7.3L59.0,7.3L59.0,21.8z" id="shape17" stroke="#002060" fill="#002060" transform="matrix(0.000000,1.000000,-1.000000,0.000000,956.929000,399.155756)"/><path fill-rule="nonzero" stroke-width="2.333329916000366" d="M.0,49.0C.0,21.9,21.9,.0,49.0,.0C76.1,.0,98.0,21.9,98.0,49.0C98.0,76.1,76.1,98.0,49.0,98.0C21.9,98.0,.0,76.1,.0,49.0z" id="shape18" stroke="#2a7d72" fill="#ffa3a0" transform="translate(883.000000,229.000000)"/><g id="shape19" transform="translate(883.000000,278.000000)"><path stroke-width="2.666670083999634" d="M.0,.0L-41.4,.0" stroke="#ff7e79" fill="none"/><path stroke-width="1" d="M-51.0,.0L-39.7,6.5C-40.8,4.6,-41.4,2.4,-41.4,.0C-41.4,-2.4,-40.8,-4.6,-39.7,-6.5L-51.0,.0" stroke="#ff7e79" stroke-linecap="round" fill="#ff7e79"/></g></g><g id="shape20" transform="translate(357.357000,39.699803)"><path fill-rule="nonzero" stroke-width="2.333329916000366" d="M.0,.0L415.0,.0L415.0,75.6L.0,75.6L.0,.0z" stroke="#954744" fill="#ffd8d7"/><text xml:space="preserve" style="fill:#191919;font-family:Delius;font-size:24.00pt;font-weight:bold"><tspan y="49.3" x="61.5">Branches Diverged</tspan></text></g><g id="shape21" transform="translate(928.429000,625.699803)"><path fill-rule="nonzero" stroke-width="1" d="M28.0,.0L77.7,.0C93.2,.0,105.7,12.5,105.7,28.0L105.7,28.6C105.7,44.1,93.2,56.6,77.7,56.6L28.0,56.6C12.5,56.6,.0,44.1,.0,28.6L.0,28.0C.0,12.5,12.5,.0,28.0,.0z" stroke="#21675e" fill="#002060"/><text xml:space="preserve" style="fill:#ffffff;font-family:Delius;font-size:18.00pt;font-weight:bold"><tspan y="37.3" x="19.4">HEAD</tspan></text></g><g id="shape22" transform="translate(914.143000,488.187503)"><path fill-rule="nonzero" stroke-width="1" d="M7.0,.0L113.0,.0C116.9,.0,120.0,3.1,120.0,7.0L120.0,40.0C120.0,43.9,116.9,47.0,113.0,47.0L7.0,47.0C3.1,47.0,.0,43.9,.0,40.0L.0,7.0C.0,3.1,3.1,.0,7.0,.0z" stroke="#7c3a37" fill="#7c3a37"/><text xml:space="preserve" style="fill:#ffffff;font-family:Delius;font-size:18.00pt;font-weight:bold"><tspan y="32.5" x="17.5">feature</tspan></text></g><g id="shape23" transform="translate(652.357000,151.800197)"><path fill-rule="nonzero" stroke-width="1" d="M7.0,.0L113.0,.0C116.9,.0,120.0,3.1,120.0,7.0L120.0,44.0C120.0,47.8,116.9,51.0,113.0,51.0L7.0,51.0C3.1,51.0,.0,47.8,.0,44.0L.0,7.0C.0,3.1,3.1,.0,7.0,.0z" stroke="#21675e" fill="#21675e"/><text xml:space="preserve" style="fill:#ffffff;font-family:Delius;font-size:18.00pt;font-weight:bold"><tspan y="34.5" x="18.5">master</tspan></text></g><g id="shape24" transform="translate(38.857000,246.000000)"><text xml:space="preserve" style="fill:#9b9b9b;font-family:Delius;font-size:18.00pt;font-weight:bold"><tspan y="28.0" x="4.0">Nh-em0n</tspan></text></g></g></svg>