<svg xmlns:xlink="http://www.w3.org/1999/xlink" height="509" viewBox="0 0 804 509" xmlns:ev="http://www.w3.org/2001/xml-events" xmlns="http://www.w3.org/2000/svg" width="804"><defs/><g id="page1" transform="translate(5.5,5.5)"><rect height="499" y="0" x="0" fill="#ffffff" width="794"/><path fill-rule="nonzero" stroke-width="2.666666746139526" d="M.0,.0L340.0,.0L340.0,344.9L.0,344.9L.0,.0z" id="shape1" stroke="#c2c2c2" fill="#ffffff" transform="translate(39.259843,39.000000)"/><path fill-rule="nonzero" d="M2.4,.0L323.3,.0C324.7,.0,325.7,1.1,325.7,2.5L325.7,40.5C325.7,41.9,324.7,43.0,323.3,43.0L2.4,43.0C1.1,43.0,.0,41.9,.0,40.5L.0,2.5C.0,1.1,1.1,.0,2.4,.0z" id="shape2" fill="#ffecd1" transform="translate(46.389843,110.166667)"/><path fill-rule="nonzero" d="M2.4,.0L323.3,.0C324.7,.0,325.7,1.1,325.7,2.5L325.7,40.5C325.7,41.9,324.7,43.0,323.3,43.0L2.4,43.0C1.1,43.0,.0,41.9,.0,40.5L.0,2.5C.0,1.1,1.1,.0,2.4,.0z" id="shape3" fill="#ffecd1" transform="translate(46.389921,164.750000)"/><path fill-rule="nonzero" d="M2.4,.0L323.3,.0C324.7,.0,325.7,1.1,325.7,2.5L325.7,40.5C325.7,41.9,324.7,43.0,323.3,43.0L2.4,43.0C1.1,43.0,.0,41.9,.0,40.5L.0,2.5C.0,1.1,1.1,.0,2.4,.0z" id="shape4" fill="#e9f8f5" transform="translate(46.389921,219.333333)"/><path fill-rule="nonzero" d="M2.4,.0L323.3,.0C324.7,.0,325.7,1.1,325.7,2.5L325.7,40.5C325.7,41.9,324.7,43.0,323.3,43.0L2.4,43.0C1.1,43.0,.0,41.9,.0,40.5L.0,2.5C.0,1.1,1.1,.0,2.4,.0z" id="shape5" fill="#e9f8f5" transform="translate(46.389921,273.916667)"/><path fill-rule="nonzero" d="M2.4,.0L323.3,.0C324.7,.0,325.7,1.1,325.7,2.5L325.7,40.5C325.7,41.9,324.7,43.0,323.3,43.0L2.4,43.0C1.1,43.0,.0,41.9,.0,40.5L.0,2.5C.0,1.1,1.1,.0,2.4,.0z" id="shape6" fill="#e9f8f5" transform="translate(46.389921,328.500000)"/><path fill-rule="nonzero" d="M2.4,.0L323.3,.0C324.7,.0,325.7,1.1,325.7,2.5L325.7,40.5C325.7,41.9,324.7,43.0,323.3,43.0L2.4,43.0C1.1,43.0,.0,41.9,.0,40.5L.0,2.5C.0,1.1,1.1,.0,2.4,.0z" id="shape7" fill="#379e90" transform="translate(46.389921,52.000000)"/><g id="shape8" transform="translate(269.999921,332.700500)"><text xml:space="preserve" style="fill:#868686;font-family:Delius;font-size:12.00pt;font-weight:bold"><tspan y="23.3" x="26.1">master</tspan></text></g><g id="shape9" transform="translate(269.999921,278.117167)"><text xml:space="preserve" style="fill:#868686;font-family:Delius;font-size:12.00pt;font-weight:bold"><tspan y="23.3" x="26.1">master</tspan></text></g><g id="shape10" transform="translate(269.999921,223.533833)"><text xml:space="preserve" style="fill:#868686;font-family:Delius;font-size:12.00pt;font-weight:bold"><tspan y="23.3" x="26.1">master</tspan></text></g><g id="shape11" transform="translate(269.999921,168.950500)"><text xml:space="preserve" style="fill:#868686;font-family:Delius;font-size:12.00pt;font-weight:bold"><tspan y="23.5" x="24.6">feautre</tspan></text></g><g id="shape12" transform="translate(269.999921,114.367167)"><text xml:space="preserve" style="fill:#868686;font-family:Delius;font-size:12.00pt;font-weight:bold"><tspan y="23.5" x="24.6">feautre</tspan></text></g><g id="shape13" transform="translate(126.574764,45.700500)"><text xml:space="preserve" style="fill:#ffffff;font-family:Delius;font-size:12.00pt;font-weight:bold"><tspan y="34.0" x="14.2">merged (master)</tspan></text></g><path fill-rule="nonzero" stroke-width="2.666670083999634" d="M.0,.0L340.0,.0L340.0,344.9L.0,344.9L.0,.0z" id="shape14" stroke="#c2c2c2" fill="#ffffff" transform="translate(414.999911,39.000197)"/><path fill-rule="nonzero" d="M2.4,.0L323.3,.0C324.7,.0,325.7,1.1,325.7,2.5L325.7,40.5C325.7,41.9,324.7,43.0,323.3,43.0L2.4,43.0C1.1,43.0,.0,41.9,.0,40.5L.0,2.5C.0,1.1,1.1,.0,2.4,.0z" id="shape15" fill="#e9f8f5" transform="translate(422.129911,219.333197)"/><path fill-rule="nonzero" d="M2.4,.0L323.3,.0C324.7,.0,325.7,1.1,325.7,2.5L325.7,40.5C325.7,41.9,324.7,43.0,323.3,43.0L2.4,43.0C1.1,43.0,.0,41.9,.0,40.5L.0,2.5C.0,1.1,1.1,.0,2.4,.0z" id="shape16" fill="#e9f8f5" transform="translate(422.129911,273.917197)"/><path fill-rule="nonzero" d="M2.4,.0L323.3,.0C324.7,.0,325.7,1.1,325.7,2.5L325.7,40.5C325.7,41.9,324.7,43.0,323.3,43.0L2.4,43.0C1.1,43.0,.0,41.9,.0,40.5L.0,2.5C.0,1.1,1.1,.0,2.4,.0z" id="shape17" fill="#e9f8f5" transform="translate(422.129911,328.500197)"/><path fill-rule="nonzero" d="M2.4,.0L323.3,.0C324.7,.0,325.7,1.1,325.7,2.5L325.7,40.5C325.7,41.9,324.7,43.0,323.3,43.0L2.4,43.0C1.1,43.0,.0,41.9,.0,40.5L.0,2.5C.0,1.1,1.1,.0,2.4,.0z" id="shape18" fill="#379e90" transform="translate(422.129911,52.000197)"/><g id="shape19" transform="translate(645.740011,332.700697)"><text xml:space="preserve" style="fill:#868686;font-family:Delius;font-size:12.00pt;font-weight:bold"><tspan y="23.3" x="26.1">master</tspan></text></g><g id="shape20" transform="translate(645.740011,278.117697)"><text xml:space="preserve" style="fill:#868686;font-family:Delius;font-size:12.00pt;font-weight:bold"><tspan y="23.3" x="26.1">master</tspan></text></g><g id="shape21" transform="translate(645.740011,223.533697)"><text xml:space="preserve" style="fill:#868686;font-family:Delius;font-size:12.00pt;font-weight:bold"><tspan y="23.3" x="26.1">master</tspan></text></g><g id="shape22" transform="translate(502.314811,45.700697)"><text xml:space="preserve" style="fill:#ffffff;font-family:Delius;font-size:12.00pt;font-weight:bold"><tspan y="34.0" x="14.2">merged (master)</tspan></text></g><g id="group23" transform="translate(500.192013,110.166667)"><path fill-rule="nonzero" d="M1.8,.0L240.6,.0C241.6,.0,242.4,1.1,242.4,2.5L242.4,40.5C242.4,41.9,241.6,43.0,240.6,43.0L1.8,43.0C.8,43.0,.0,41.9,.0,40.5L.0,2.5C.0,1.1,.8,.0,1.8,.0z" id="shape24" fill="#ffecd1"/><g id="shape25" transform="translate(166.381034,4.200500)"><text xml:space="preserve" style="fill:#868686;font-family:Delius;font-size:12.00pt;font-weight:bold"><tspan y="23.3" x="10.6">feautre</tspan></text></g></g><g id="group26" transform="translate(500.192013,164.749667)"><path fill-rule="nonzero" d="M1.8,.0L240.6,.0C241.6,.0,242.4,1.1,242.4,2.5L242.4,40.5C242.4,41.9,241.6,43.0,240.6,43.0L1.8,43.0C.8,43.0,.0,41.9,.0,40.5L.0,2.5C.0,1.1,.8,.0,1.8,.0z" id="shape27" fill="#ffecd1"/><g id="shape28" transform="translate(166.381034,4.200500)"><text xml:space="preserve" style="fill:#868686;font-family:Delius;font-size:12.00pt;font-weight:bold"><tspan y="23.3" x="10.6">feautre</tspan></text></g></g><g id="group29" transform="translate(41.259843,396.850394)"><path fill-rule="nonzero" stroke-width="1" d="M2.5,.0L336.5,.0C337.9,.0,339.0,.9,339.0,1.9L339.0,57.6C339.0,58.6,337.9,59.5,336.5,59.5L2.5,59.5C1.1,59.5,.0,58.6,.0,57.6L.0,1.9C.0,.9,1.1,.0,2.5,.0z" id="shape30" stroke="#4ed7c5" fill="#e9f8f5"/><g id="shape31" transform="translate(5.130079,8.750000)"><text xml:space="preserve" style="fill:#9b9b9b;font-family:Delius;font-size:16.00pt;font-weight:bold"><tspan y="15.0" x="23.0">ff-merge : branch disappear </tspan><tspan y="42.0" x="108.0">after merge</tspan></text></g></g><g id="group32" transform="translate(414.999911,396.850394)"><path fill-rule="nonzero" stroke-width="1" d="M2.5,.0L336.5,.0C337.9,.0,339.0,.9,339.0,1.9L339.0,57.6C339.0,58.6,337.9,59.5,336.5,59.5L2.5,59.5C1.1,59.5,.0,58.6,.0,57.6L.0,1.9C.0,.9,1.1,.0,2.5,.0z" id="shape33" stroke="#4ed7c5" fill="#e9f8f5"/><g id="shape34" transform="translate(-0.000000,8.750000)"><text xml:space="preserve" style="fill:#868686;font-family:Delius;font-size:16.00pt;font-weight:bold"><tspan y="15.0" x="4.5">no-ff-merge : branch exist after </tspan><tspan y="42.0" x="136.5">merge</tspan></text></g></g><path stroke-width="2" d="M.0,31.0L74.0,.0" id="shape35" stroke="#ff7e79" fill="none" transform="translate(424.259843,186.850394)"/><path stroke-width="2.666666746139526" d="M75.0,27.0L.0,.0" id="shape36" stroke="#379e90" fill="none" transform="translate(425.259843,94.850394)"/><g id="shape37" transform="translate(337.000000,462.500000)"><text xml:space="preserve" style="fill:#9b9b9b;font-family:Delius;font-size:18.00pt;font-weight:bold"><tspan y="18.5" x="4.0">Nh-em0n</tspan></text></g></g></svg>