<svg xmlns:ev="http://www.w3.org/2001/xml-events" width="1070" height="749" xmlns:xlink="http://www.w3.org/1999/xlink" viewBox="0 0 1070 749" xmlns="http://www.w3.org/2000/svg"><defs/><g transform="translate(5.5,5.5)" id="page1"><rect width="1060" height="739" fill="#ffffff" y="0" x="0"/><path d="M.0,.0L289.0,.0L289.0,293.0L.0,293.0L.0,.0z" fill="#b2e8df" fill-rule="nonzero" transform="translate(385.759795,122.850394)" id="shape1"/><g transform="translate(832.259795,117.600394)" id="group2"><g id="group3"/><path d="M.0,48.4C.0,21.7,16.2,.0,36.1,.0C56.1,.0,72.2,21.7,72.2,48.4C72.2,75.1,56.1,96.8,36.1,96.8C16.2,96.8,.0,75.1,.0,48.4zM36.1,91.2C53.7,91.2,68.0,72.0,68.0,48.4C68.0,24.8,53.7,5.7,36.1,5.7C18.5,5.7,4.2,24.8,4.2,48.4C4.2,72.0,18.5,91.2,36.1,91.2zM54.7,51.2L38.2,51.2L38.2,73.3L34.0,73.3L34.0,51.2L17.5,51.2L17.5,45.6L34.0,45.6L34.0,23.6L38.2,23.6L38.2,45.6L54.7,45.6L54.7,51.2z" fill="#717070" stroke-width="1" fill-rule="nonzero" stroke="#717070" transform="translate(116.770910,195.284258)" id="shape4"/><path d="M2.8,25.4C2.8,11.4,38.6,.0,82.8,.0C126.9,.0,162.7,11.4,162.7,25.4C162.7,39.4,126.9,50.8,82.8,50.8C38.6,50.8,2.8,39.4,2.8,25.4zM165.5,37.7L165.5,104.4C165.5,104.7,165.5,104.9,165.5,105.1C165.5,120.9,128.5,133.7,82.8,133.7C37.1,133.7,.0,120.9,.0,105.1C.0,104.9,.0,104.7,.0,104.4L.0,37.7C5.8,51.7,40.7,62.5,82.8,62.5C124.8,62.5,159.7,51.7,165.5,37.7zM165.5,120.0L165.5,186.7C165.5,186.9,165.5,187.1,165.5,187.4C165.5,188.7,165.2,190.1,164.7,191.5C160.9,189.9,157.0,189.1,152.9,189.1C138.9,189.1,126.5,198.6,119.2,213.1C108.2,214.9,95.8,216.0,82.8,216.0C37.1,216.0,.0,203.2,.0,187.4C.0,187.1,.0,186.9,.0,186.7L.0,120.0C5.8,134.0,40.7,144.7,82.8,144.7C124.8,144.7,159.7,134.0,165.5,120.0zM82.8,298.3C37.1,298.3,.0,285.4,.0,269.6C.0,269.4,.0,269.2,.0,269.0L.0,202.3C5.8,216.3,40.7,227.0,82.8,227.0C94.1,227.0,104.8,226.2,114.7,224.8C113.1,230.7,112.2,237.1,112.2,243.7C112.2,264.7,121.1,283.0,134.1,292.1C120.0,295.9,102.1,298.3,82.8,298.3z" fill="#00a2ff" stroke-width="1" fill-rule="nonzero" stroke="#00a2ff" id="shape5"/></g><g transform="translate(39.259795,120.850394)" id="group6"><path d="M.0,.0L189.0,.0L189.0,297.0L.0,297.0L.0,.0z" fill="#ffecd1" fill-rule="nonzero" id="shape7"/><g transform="translate(16.000000,32.000000)" id="group8"><path d="M.0,.0L.0,2.8L2.7,2.8L2.7,.0L.0,.0zM.0,5.6L.0,8.4L2.7,8.4L2.7,5.6L.0,5.6zM.0,11.1L.0,13.9L2.7,13.9L2.7,11.1L.0,11.1zM.0,16.7L.0,19.5L2.7,19.5L2.7,16.7L.0,16.7zM.0,22.3L.0,25.1L2.7,25.1L2.7,22.3L.0,22.3zM.0,27.9L.0,30.6L2.7,30.6L2.7,27.9L.0,27.9zM.0,33.4L.0,36.2L2.7,36.2L2.7,33.4L.0,33.4zM.0,39.0L.0,41.8L2.7,41.8L2.7,39.0L.0,39.0zM.0,44.6L.0,47.3L2.7,47.3L2.7,44.6L.0,44.6zM.0,50.1L.0,52.9L2.7,52.9L2.7,50.1L.0,50.1zM.0,55.7L.0,58.5L2.7,58.5L2.7,55.7L.0,55.7zM5.5,11.1L5.5,13.9L8.2,13.9L8.2,11.1L5.5,11.1zM11.0,11.1L11.0,13.9L13.7,13.9L13.7,11.1L11.0,11.1zM5.5,55.7L5.5,58.5L8.2,58.5L8.2,55.7L5.5,55.7zM11.0,55.7L11.0,58.5L13.7,58.5L13.7,55.7L11.0,55.7zM16.5,55.7L16.5,58.5L19.2,58.5L19.2,55.7L16.5,55.7zM21.9,55.7L21.9,58.5L24.7,58.5L24.7,55.7L21.9,55.7zM27.4,55.7L27.4,58.5L30.2,58.5L30.2,55.7L27.4,55.7zM16.5,11.1L16.5,13.9L19.2,13.9L19.2,11.1L16.5,11.1zM21.9,11.1L21.9,13.9L24.7,13.9L24.7,11.1L21.9,11.1zM27.4,11.1L27.4,13.9L30.2,13.9L30.2,11.1L27.4,11.1zM32.9,11.1L32.9,13.9L35.6,13.9L35.6,11.1L32.9,11.1zM32.9,55.7L32.9,58.5L35.6,58.5L35.6,55.7L32.9,55.7zM38.4,55.7L38.4,58.5L41.1,58.5L41.1,55.7L38.4,55.7zM38.4,11.1L38.4,13.9L41.1,13.9L41.1,11.1L38.4,11.1zM43.9,11.1L43.9,13.9L46.6,13.9L46.6,11.1L43.9,11.1zM43.9,55.7L43.9,58.5L46.6,58.5L46.6,55.7L43.9,55.7z" fill="#a5a5a5" fill-rule="nonzero" transform="translate(20.252700,35.120794)" id="shape9"/><g transform="translate(-0.000000,0.001531)" id="group10"><path d="M43.5,8.1L43.5,35.2L.1,35.2L.0,3.1C.0,3.1,.0,-0.1,3.6,.0C3.6,.0,14.3,.0,14.3,.0L18.6,4.0L39.9,4.0C39.9,4.0,43.5,3.6,43.5,8.1z" fill="#ffcd55" stroke-width="1" fill-rule="nonzero" stroke="#ffcd55" id="shape11"/><path d="M2.1,.0L40.0,.0C41.1,.0,42.0,.9,42.0,2.1L42.0,27.5L.0,27.5L.0,2.1C.0,.9,.9,.0,2.1,.0z" fill="#ffe29b" stroke-width="1" fill-rule="nonzero" stroke="#ffe29b" transform="translate(0.706559,7.176746)" id="shape12"/></g><g transform="translate(66.539841,30.012645)" id="group13"><path d="M43.5,8.1L43.5,35.2L.1,35.2L.0,3.1C.0,3.1,.0,-0.1,3.6,.0C3.6,.0,14.3,.0,14.3,.0L18.6,4.0L39.9,4.0C39.9,4.0,43.5,3.6,43.5,8.1z" fill="#ffcd55" stroke-width="1" fill-rule="nonzero" stroke="#ffcd55" id="shape14"/><path d="M2.1,.0L40.0,.0C41.1,.0,42.0,.9,42.0,2.1L42.0,27.5L.0,27.5L.0,2.1C.0,.9,.9,.0,2.1,.0z" fill="#ffe29b" stroke-width="1" fill-rule="nonzero" stroke="#ffe29b" transform="translate(0.706559,7.176746)" id="shape15"/></g><g transform="translate(66.539841,74.780818)" id="group16"><path d="M43.5,8.1L43.5,35.2L.1,35.2L.0,3.1C.0,3.1,.0,-0.1,3.6,.0C3.6,.0,14.3,.0,14.3,.0L18.6,4.0L39.9,4.0C39.9,4.0,43.5,3.6,43.5,8.1z" fill="#ffcd55" stroke-width="1" fill-rule="nonzero" stroke="#ffcd55" id="shape17"/><path d="M2.1,.0L40.0,.0C41.1,.0,42.0,.9,42.0,2.1L42.0,27.5L.0,27.5L.0,2.1C.0,.9,.9,.0,2.1,.0z" fill="#ffe29b" stroke-width="1" fill-rule="nonzero" stroke="#ffe29b" transform="translate(0.706559,7.176746)" id="shape18"/></g></g></g><g transform="translate(832.259795,38.850394)" id="shape19"><path d="M11.0,.0L159.0,.0C165.1,.0,170.0,4.9,170.0,11.0L170.0,65.0C170.0,71.1,165.1,76.0,159.0,76.0L11.0,76.0C4.9,76.0,.0,71.1,.0,65.0L.0,11.0C.0,4.9,4.9,.0,11.0,.0z" fill="#1d397b" stroke-width="1" fill-rule="nonzero" stroke="#1d397b"/><text xml:space="preserve" style="fill:#ffffff;font-family:Delius;font-size:18.00pt;font-weight:bold"><tspan y="47.0" x="34.0">Commits</tspan></text></g><g transform="translate(385.759795,38.850394)" id="shape20"><path d="M18.0,.0L271.0,.0C280.9,.0,289.0,8.1,289.0,18.0L289.0,58.0C289.0,67.9,280.9,76.0,271.0,76.0L18.0,76.0C8.1,76.0,.0,67.9,.0,58.0L.0,18.0C.0,8.1,8.1,.0,18.0,.0z" fill="#21675e" stroke-width="1" fill-rule="nonzero" stroke="#21675e"/><text xml:space="preserve" style="fill:#ffffff;font-family:Delius;font-size:18.00pt;font-weight:bold"><tspan y="47.0" x="70.0">Staging Area</tspan></text></g><g transform="translate(39.259795,39.850394)" id="shape21"><path d="M11.0,.0L178.0,.0C184.1,.0,189.0,4.9,189.0,11.0L189.0,65.0C189.0,71.1,184.1,76.0,178.0,76.0L11.0,76.0C4.9,76.0,.0,71.1,.0,65.0L.0,11.0C.0,4.9,4.9,.0,11.0,.0z" fill="#ffd78e" stroke-width="1" fill-rule="nonzero" stroke="#ff7e79"/><text xml:space="preserve" style="fill:#191919;font-family:Delius;font-size:18.00pt;font-weight:bold"><tspan y="32.0" x="48.0">working </tspan><tspan y="62.0" x="41.0">directory</tspan></text></g><g transform="translate(76.259795,284.850394)" id="shape22"><path d="M.0,.0L.0,50.5L38.0,50.5L38.0,13.6L25.7,.0L.0,.0z" fill="#44bdad" fill-rule="nonzero"/><path d="M.0,.0L.0,50.5L38.0,50.5L38.0,13.6L25.7,.0L.0,.0zM38.0,13.6L25.7,13.6L25.7,.0" fill="none" stroke-width="1" stroke="#000000"/></g><g transform="translate(76.259795,354.450787)" id="shape23"><path d="M.0,.0L.0,50.5L38.0,50.5L38.0,13.6L25.7,.0L.0,.0z" fill="#ff7e79" fill-rule="nonzero"/><path d="M.0,.0L.0,50.5L38.0,50.5L38.0,13.6L25.7,.0L.0,.0zM38.0,13.6L25.7,13.6L25.7,.0" fill="none" stroke-width="1" stroke="#000000"/></g><g transform="translate(417.259795,146.600394)" id="shape24"><path d="M.0,.0L.0,50.5L38.0,50.5L38.0,13.6L25.7,.0L.0,.0z" fill="#44bdad" fill-rule="nonzero"/><path d="M.0,.0L.0,50.5L38.0,50.5L38.0,13.6L25.7,.0L.0,.0zM38.0,13.6L25.7,13.6L25.7,.0" fill="none" stroke-width="1" stroke="#000000"/></g><g transform="translate(417.259795,228.850394)" id="shape25"><path d="M.0,.0L.0,50.5L38.0,50.5L38.0,13.6L25.7,.0L.0,.0z" fill="#ff7e79" fill-rule="nonzero"/><path d="M.0,.0L.0,50.5L38.0,50.5L38.0,13.6L25.7,.0L.0,.0zM38.0,13.6L25.7,13.6L25.7,.0" fill="none" stroke-width="1" stroke="#000000"/></g><g transform="translate(228.259795,269.350394)" id="shape26"><path d="M.0,.0L2.0,.0C2.6,.0,3.0,-0.3,3.1,-1.0C3.6,-3.8,6.0,-6.0,9.0,-6.0C10.9,-6.0,12.6,-5.1,13.7,-3.7C15.4,-1.6,16.8,.0,19.0,.0L151.7,.0" fill="none" stroke-width="5.333333492279053" stroke="#000000"/><path d="M146.8,-10.2L157.0,.0L146.8,10.2" stroke-linecap="round" fill="none" stroke-width="5.33333" stroke="#000000" stroke-linejoin="round"/></g><path d="M.0,.0L108.0,.0C116.3,.0,123.0,-6.7,123.0,-15.0L123.0,-37.0C123.0,-39.2,121.2,-41.0,119.0,-41.0L114.0,-41.0" fill="none" stroke-width="1" stroke="#c2c2c2" transform="translate(114.259795,310.100394)" id="shape27"/><path d="M.0,.0L107.0,.0C115.3,.0,122.0,-6.7,122.0,-15.0L122.0,-106.0C122.0,-108.2,120.2,-110.0,118.0,-110.0L113.0,-110.0" fill="none" stroke-width="1" stroke="#c2c2c2" transform="translate(114.259795,379.700787)" id="shape28"/><g transform="translate(674.759795,269.350394)" id="shape29"><path d="M.0,.0L154.0,.0" fill="none" stroke-width="4" stroke="#000000"/><path d="M149.0,-9.0L158.0,.0L149.0,9.0" stroke-linecap="round" fill="none" stroke-width="4" stroke="#000000" stroke-linejoin="round"/></g><path d="M.0,.0L213.0,.0C221.3,.0,228.0,6.7,228.0,15.0L228.0,93.0C228.0,95.2,226.2,97.0,224.0,97.0L219.0,97.0" fill="none" stroke-width="1" stroke="#696969" transform="translate(455.259795,171.850394)" id="shape30"/><path d="M.0,.0L225.0,.0C226.7,.0,228.0,1.3,228.0,3.0L228.0,4.0C228.0,5.7,226.7,7.0,225.0,7.0L219.0,7.0" fill="none" stroke-width="1" stroke="#595959" transform="translate(455.259795,261.515764)" id="shape31"/><g transform="translate(247.009795,209.850394)" id="shape32"><text xml:space="preserve" style="fill:#000000;font-family:Delius;font-size:18.00pt;font-weight:bold"><tspan y="28.0" x="19.5">git add</tspan></text></g><g transform="translate(693.509795,190.850394)" id="shape33"><text xml:space="preserve" style="fill:#000000;font-family:Delius;font-size:18.00pt;font-weight:bold"><tspan y="32.0" x="45.5">git </tspan><tspan y="62.0" x="17.0">commit</tspan></text></g><path d="M.0,.0L642.0,.0L642.0,170.0L.0,170.0L.0,.0z" fill="#379e90" fill-rule="nonzero" transform="translate(209.259795,530.850394)" id="shape34"/><path d="M.0,.0L.0,-72.0C.0,-80.3,6.7,-87.0,15.0,-87.0L161.0,-87.0C168.7,-87.0,175.0,-93.3,175.0,-101.0L175.0,-115.0" fill="none" stroke-width="1" stroke="#454545" transform="translate(210.543795,530.850394)" id="shape35"/><path d="M.0,.0L.0,-72.0C.0,-80.3,-6.7,-87.0,-15.0,-87.0L-157.0,-87.0C-164.7,-87.0,-171.0,-93.3,-171.0,-101.0L-171.0,-115.0" fill="none" stroke-width="1" stroke="#595959" transform="translate(845.481795,530.850394)" id="shape36"/><g transform="translate(448.259795,454.850394)" id="shape37"><text xml:space="preserve" style="fill:#000000;font-family:Delius;font-size:18.00pt;font-weight:bold"><tspan y="28.0" x="6.0">git status</tspan></text></g><path d="M.0,.0L120.0,.0L120.0,19.0L.0,19.0L.0,.0z" fill="#afafaf" fill-rule="nonzero" transform="translate(247.259795,568.850394)" id="shape38"/><path d="M.0,.0L416.0,.0L416.0,19.0L.0,19.0L.0,.0z" fill="#afafaf" fill-rule="nonzero" transform="translate(303.259795,606.850394)" id="shape39"/><path d="M.0,.0L416.0,.0L416.0,19.0L.0,19.0L.0,.0z" fill="#afafaf" fill-rule="nonzero" transform="translate(303.259795,644.850394)" id="shape40"/><g transform="translate(53.000000,606.850394)" id="shape41"><text xml:space="preserve" style="fill:#9b9b9b;font-family:Delius;font-size:18.00pt;font-weight:bold"><tspan y="28.0" style="text-decoration:underline" x="4.0">Nh-em0n</tspan></text></g></g></svg>