<svg xmlns:ev="http://www.w3.org/2001/xml-events" width="1119" xmlns="http://www.w3.org/2000/svg" height="641" xmlns:xlink="http://www.w3.org/1999/xlink" viewBox="0 0 1119 641"><defs/><g id="page1" transform="translate(5.5,5.5)"><rect y="0" width="1109" x="0" fill="none" height="631"/><g id="group1" transform="translate(832.630000,118.212202)"><g id="group2"/><path fill="#717070" stroke-width="1" id="shape3" stroke="#717070" transform="translate(116.771400,195.284300)" d="M.0,48.4C.0,21.7,16.2,.0,36.1,.0C56.1,.0,72.2,21.7,72.2,48.4C72.2,75.1,56.1,96.8,36.1,96.8C16.2,96.8,.0,75.1,.0,48.4zM36.1,91.2C53.7,91.2,68.0,72.0,68.0,48.4C68.0,24.8,53.7,5.7,36.1,5.7C18.5,5.7,4.2,24.8,4.2,48.4C4.2,72.0,18.5,91.2,36.1,91.2zM54.7,51.2L38.2,51.2L38.2,73.3L34.0,73.3L34.0,51.2L17.5,51.2L17.5,45.6L34.0,45.6L34.0,23.6L38.2,23.6L38.2,45.6L54.7,45.6L54.7,51.2z" fill-rule="nonzero"/><path fill="#00a2ff" stroke-width="1" id="shape4" stroke="#00a2ff" d="M2.8,25.4C2.8,11.4,38.6,.0,82.8,.0C126.9,.0,162.7,11.4,162.7,25.4C162.7,39.4,126.9,50.8,82.8,50.8C38.6,50.8,2.8,39.4,2.8,25.4zM165.5,37.7L165.5,104.4C165.5,104.7,165.5,104.9,165.5,105.1C165.5,120.9,128.5,133.7,82.8,133.7C37.1,133.7,.0,120.9,.0,105.1C.0,104.9,.0,104.7,.0,104.4L.0,37.7C5.8,51.7,40.7,62.5,82.8,62.5C124.8,62.5,159.7,51.7,165.5,37.7zM165.5,120.0L165.5,186.7C165.5,186.9,165.5,187.1,165.5,187.4C165.5,188.7,165.2,190.1,164.7,191.5C160.9,189.9,157.0,189.1,152.9,189.1C138.9,189.1,126.5,198.6,119.2,213.1C108.2,214.9,95.8,216.0,82.8,216.0C37.1,216.0,.0,203.2,.0,187.4C.0,187.1,.0,186.9,.0,186.7L.0,120.0C5.8,134.0,40.7,144.7,82.8,144.7C124.8,144.7,159.7,134.0,165.5,120.0zM82.8,298.3C37.1,298.3,.0,285.4,.0,269.6C.0,269.4,.0,269.2,.0,269.0L.0,202.3C5.8,216.3,40.7,227.0,82.8,227.0C94.1,227.0,104.8,226.2,114.7,224.8C113.1,230.7,112.2,237.1,112.2,243.7C112.2,264.7,121.1,283.0,134.1,292.1C120.0,295.9,102.1,298.3,82.8,298.3z" fill-rule="nonzero"/></g><g id="group5" transform="translate(39.630000,121.462202)"><path fill="#ffecd1" id="shape6" d="M.0,.0L189.0,.0L189.0,297.0L.0,297.0L.0,.0z" fill-rule="nonzero"/><g id="group7" transform="translate(16.000000,32.000000)"><path fill="#a5a5a5" id="shape8" transform="translate(20.252700,35.120800)" d="M.0,.0L.0,2.8L2.7,2.8L2.7,.0L.0,.0zM.0,5.6L.0,8.4L2.7,8.4L2.7,5.6L.0,5.6zM.0,11.1L.0,13.9L2.7,13.9L2.7,11.1L.0,11.1zM.0,16.7L.0,19.5L2.7,19.5L2.7,16.7L.0,16.7zM.0,22.3L.0,25.1L2.7,25.1L2.7,22.3L.0,22.3zM.0,27.9L.0,30.6L2.7,30.6L2.7,27.9L.0,27.9zM.0,33.4L.0,36.2L2.7,36.2L2.7,33.4L.0,33.4zM.0,39.0L.0,41.8L2.7,41.8L2.7,39.0L.0,39.0zM.0,44.6L.0,47.3L2.7,47.3L2.7,44.6L.0,44.6zM.0,50.1L.0,52.9L2.7,52.9L2.7,50.1L.0,50.1zM.0,55.7L.0,58.5L2.7,58.5L2.7,55.7L.0,55.7zM5.5,11.1L5.5,13.9L8.2,13.9L8.2,11.1L5.5,11.1zM11.0,11.1L11.0,13.9L13.7,13.9L13.7,11.1L11.0,11.1zM5.5,55.7L5.5,58.5L8.2,58.5L8.2,55.7L5.5,55.7zM11.0,55.7L11.0,58.5L13.7,58.5L13.7,55.7L11.0,55.7zM16.5,55.7L16.5,58.5L19.2,58.5L19.2,55.7L16.5,55.7zM21.9,55.7L21.9,58.5L24.7,58.5L24.7,55.7L21.9,55.7zM27.4,55.7L27.4,58.5L30.2,58.5L30.2,55.7L27.4,55.7zM16.5,11.1L16.5,13.9L19.2,13.9L19.2,11.1L16.5,11.1zM21.9,11.1L21.9,13.9L24.7,13.9L24.7,11.1L21.9,11.1zM27.4,11.1L27.4,13.9L30.2,13.9L30.2,11.1L27.4,11.1zM32.9,11.1L32.9,13.9L35.6,13.9L35.6,11.1L32.9,11.1zM32.9,55.7L32.9,58.5L35.6,58.5L35.6,55.7L32.9,55.7zM38.4,55.7L38.4,58.5L41.1,58.5L41.1,55.7L38.4,55.7zM38.4,11.1L38.4,13.9L41.1,13.9L41.1,11.1L38.4,11.1zM43.9,11.1L43.9,13.9L46.6,13.9L46.6,11.1L43.9,11.1zM43.9,55.7L43.9,58.5L46.6,58.5L46.6,55.7L43.9,55.7z" fill-rule="nonzero"/><g id="group9" transform="translate(0.000000,0.001500)"><path fill="#ffcd55" stroke-width="1" id="shape10" stroke="#ffcd55" d="M43.5,8.1L43.5,35.2L.1,35.2L.0,3.1C.0,3.1,.0,-0.1,3.6,.0C3.6,.0,14.3,.0,14.3,.0L18.6,4.0L39.9,4.0C39.9,4.0,43.5,3.6,43.5,8.1z" fill-rule="nonzero"/><path fill="#ffe29b" stroke-width="1" id="shape11" stroke="#ffe29b" transform="translate(0.706600,7.176700)" d="M2.1,.0L40.0,.0C41.1,.0,42.0,.9,42.0,2.1L42.0,27.5L.0,27.5L.0,2.1C.0,.9,.9,.0,2.1,.0z" fill-rule="nonzero"/></g><g id="group12" transform="translate(66.539800,30.012600)"><path fill="#ffcd55" stroke-width="1" id="shape13" stroke="#ffcd55" d="M43.5,8.1L43.5,35.2L.1,35.2L.0,3.1C.0,3.1,.0,-0.1,3.6,.0C3.6,.0,14.3,.0,14.3,.0L18.6,4.0L39.9,4.0C39.9,4.0,43.5,3.6,43.5,8.1z" fill-rule="nonzero"/><path fill="#ffe29b" stroke-width="1" id="shape14" stroke="#ffe29b" transform="translate(0.706600,7.176700)" d="M2.1,.0L40.0,.0C41.1,.0,42.0,.9,42.0,2.1L42.0,27.5L.0,27.5L.0,2.1C.0,.9,.9,.0,2.1,.0z" fill-rule="nonzero"/></g><g id="group15" transform="translate(66.539800,74.780800)"><path fill="#ffcd55" stroke-width="1" id="shape16" stroke="#ffcd55" d="M43.5,8.1L43.5,35.2L.1,35.2L.0,3.1C.0,3.1,.0,-0.1,3.6,.0C3.6,.0,14.3,.0,14.3,.0L18.6,4.0L39.9,4.0C39.9,4.0,43.5,3.6,43.5,8.1z" fill-rule="nonzero"/><path fill="#ffe29b" stroke-width="1" id="shape17" stroke="#ffe29b" transform="translate(0.706600,7.176700)" d="M2.1,.0L40.0,.0C41.1,.0,42.0,.9,42.0,2.1L42.0,27.5L.0,27.5L.0,2.1C.0,.9,.9,.0,2.1,.0z" fill-rule="nonzero"/></g></g></g><g id="shape18" transform="translate(832.630000,19.000000)"><path fill="#1d397b" stroke-width="1" stroke="#1d397b" d="M11.0,.0L159.0,.0C165.1,.0,170.0,4.9,170.0,11.0L170.0,65.0C170.0,71.1,165.1,76.0,159.0,76.0L11.0,76.0C4.9,76.0,.0,71.1,.0,65.0L.0,11.0C.0,4.9,4.9,.0,11.0,.0z" fill-rule="nonzero"/><text xml:space="preserve" style="fill:#ffffff;font-family:Delius;font-size:18.00pt;font-weight:bold"><tspan y="47.0" x="34.0">Commits</tspan></text></g><g id="shape19" transform="translate(39.630000,19.000000)"><path fill="#ffd78e" stroke-width="1" stroke="#ff7e79" d="M11.0,.0L178.0,.0C184.1,.0,189.0,4.9,189.0,11.0L189.0,65.0C189.0,71.1,184.1,76.0,178.0,76.0L11.0,76.0C4.9,76.0,.0,71.1,.0,65.0L.0,11.0C.0,4.9,4.9,.0,11.0,.0z" fill-rule="nonzero"/><text xml:space="preserve" style="fill:#191919;font-family:Delius;font-size:18.00pt;font-weight:bold"><tspan y="32.0" x="48.0">working </tspan><tspan y="62.0" x="41.0">directory</tspan></text></g><g id="shape20" transform="translate(76.629800,285.462202)"><path fill="#44bdad" d="M.0,.0L.0,50.5L38.0,50.5L38.0,13.6L25.7,.0L.0,.0z" fill-rule="nonzero"/><path fill="none" stroke-width="1" stroke="#000000" d="M.0,.0L.0,50.5L38.0,50.5L38.0,13.6L25.7,.0L.0,.0zM38.0,13.6L25.7,13.6L25.7,.0"/></g><g id="shape21" transform="translate(76.629800,355.063202)"><path fill="#ff7e79" d="M.0,.0L.0,50.5L38.0,50.5L38.0,13.6L25.7,.0L.0,.0z" fill-rule="nonzero"/><path fill="none" stroke-width="1" stroke="#000000" d="M.0,.0L.0,50.5L38.0,50.5L38.0,13.6L25.7,.0L.0,.0zM38.0,13.6L25.7,13.6L25.7,.0"/></g><path fill="none" stroke-width="1" id="shape22" stroke="#7e7e7e" transform="translate(114.629800,310.712202)" d="M.0,.0L108.0,.0C116.3,.0,123.0,-6.7,123.0,-15.0L123.0,-36.8C123.0,-39.0,121.2,-40.8,119.0,-40.8L114.0,-40.8"/><path fill="none" stroke-width="1" id="shape23" stroke="#7e7e7e" transform="translate(114.629800,380.313202)" d="M.0,.0L107.0,.0C115.3,.0,122.0,-6.7,122.0,-15.0L122.0,-107.4C122.0,-109.0,120.7,-110.4,119.0,-110.4L114.0,-110.4"/><g id="shape24" transform="translate(870.370000,183.511202)"><path fill="#4ed7c5" d="M.0,.0L.0,50.5L38.0,50.5L38.0,13.6L25.7,.0L.0,.0z" fill-rule="nonzero"/><path fill="none" stroke-width="1" stroke="#000000" d="M.0,.0L.0,50.5L38.0,50.5L38.0,13.6L25.7,.0L.0,.0zM38.0,13.6L25.7,13.6L25.7,.0"/></g><g id="shape25" transform="translate(927.370000,183.511202)"><path fill="#ffd8d7" d="M.0,.0L.0,50.5L38.0,50.5L38.0,13.6L25.7,.0L.0,.0z" fill-rule="nonzero"/><path fill="none" stroke-width="1" stroke="#000000" d="M.0,.0L.0,50.5L38.0,50.5L38.0,13.6L25.7,.0L.0,.0zM38.0,13.6L25.7,13.6L25.7,.0"/></g><g id="shape26" transform="translate(965.370000,208.761202)"><path fill="none" stroke-width="4" stroke="#7e7e7e" d="M.0,.0L79.0,.0C87.3,.0,94.0,6.7,94.0,15.0L94.0,269.0C94.0,277.3,87.3,284.0,79.0,284.0L-854.7,284.0C-863.0,284.0,-869.7,277.3,-869.7,269.0L-869.7,200.8"/><path stroke-linejoin="round" fill="none" stroke-width="4" stroke-linecap="round" stroke="#7e7e7e" d="M-878.7,205.8L-869.7,196.8L-860.7,205.8"/></g><g id="shape27" transform="translate(697.370000,183.511202)"><text xml:space="preserve" style="fill:#696969;font-family:Delius;font-size:18.00pt;font-weight:bold"><tspan y="28.0" x="11.0" style="text-decoration:underline">613e2b9</tspan></text></g><path fill="none" stroke-width="1" id="shape28" stroke="#7e7e7e" transform="translate(998.152000,267.337202)" d="M.0,.0L23.0,.0C24.7,.0,26.0,-1.3,26.0,-3.0L26.0,-3.0C26.0,-4.7,24.7,-6.0,23.0,-6.0L-170.0,-6.0C-171.7,-6.0,-173.0,-4.7,-173.0,-3.0L-173.0,-3.0C-173.0,-1.3,-171.7,.0,-170.0,.0L-167.0,.0"/><g id="shape29" transform="translate(871.370000,265.612202)"><path fill="#44bdad" d="M.0,.0L.0,50.5L38.0,50.5L38.0,13.6L25.7,.0L.0,.0z" fill-rule="nonzero"/><path fill="none" stroke-width="1" stroke="#000000" d="M.0,.0L.0,50.5L38.0,50.5L38.0,13.6L25.7,.0L.0,.0zM38.0,13.6L25.7,13.6L25.7,.0"/></g><g id="shape30" transform="translate(928.370000,265.612202)"><path fill="#ffa3a0" d="M.0,.0L.0,50.5L38.0,50.5L38.0,13.6L25.7,.0L.0,.0z" fill-rule="nonzero"/><path fill="none" stroke-width="1" stroke="#000000" d="M.0,.0L.0,50.5L38.0,50.5L38.0,13.6L25.7,.0L.0,.0zM38.0,13.6L25.7,13.6L25.7,.0"/></g><g id="shape31" transform="translate(698.370000,265.612202)"><text xml:space="preserve" style="fill:#696969;font-family:Delius;font-size:18.00pt;font-weight:bold"><tspan y="28.0" x="11.5" style="text-decoration:underline">5e5e4ty</tspan></text></g><g id="shape32" transform="translate(870.370000,355.063202)"><path fill="#00b050" d="M.0,.0L.0,50.5L38.0,50.5L38.0,13.6L25.7,.0L.0,.0z" fill-rule="nonzero"/><path fill="none" stroke-width="1" stroke="#000000" d="M.0,.0L.0,50.5L38.0,50.5L38.0,13.6L25.7,.0L.0,.0zM38.0,13.6L25.7,13.6L25.7,.0"/></g><g id="shape33" transform="translate(927.370000,355.063202)"><path fill="#bc5b57" d="M.0,.0L.0,50.5L38.0,50.5L38.0,13.6L25.7,.0L.0,.0z" fill-rule="nonzero"/><path fill="none" stroke-width="1" stroke="#000000" d="M.0,.0L.0,50.5L38.0,50.5L38.0,13.6L25.7,.0L.0,.0zM38.0,13.6L25.7,13.6L25.7,.0"/></g><g id="shape34" transform="translate(697.370000,355.063202)"><text xml:space="preserve" style="fill:#696969;font-family:Delius;font-size:18.00pt;font-weight:bold"><tspan y="28.0" x="8.5" style="text-decoration:underline">d4gr67w</tspan></text></g><g id="shape35" transform="translate(265.370000,505.687005)"><path fill="#ffd8d7" d="M.0,.0L579.7,.0L579.7,87.9L.0,87.9L.0,.0z" fill-rule="nonzero"/><text xml:space="preserve" style="fill:#000000;font-family:Delius;font-size:22.00pt;font-weight:bold"><tspan y="54.5" x="82.9">git restore --source=613e2b9 </tspan></text></g><g id="shape36" transform="translate(780.370000,524.362202)"><path fill="#ffecec" d="M.0,.0L.0,50.5L38.0,50.5L38.0,13.6L25.7,.0L.0,.0z" fill-rule="nonzero"/><path fill="none" stroke-width="1" stroke="#000000" d="M.0,.0L.0,50.5L38.0,50.5L38.0,13.6L25.7,.0L.0,.0zM38.0,13.6L25.7,13.6L25.7,.0"/></g><g id="shape37" transform="translate(74.130000,530.612202)"><text xml:space="preserve" style="fill:#afafaf;font-family:Delius;font-size:18.00pt;font-weight:bold"><tspan y="28.0" x="4.0" style="text-decoration:underline">Nh-em0n</tspan></text></g></g></svg>