<svg xmlns:ev="http://www.w3.org/2001/xml-events" width="742" xmlns="http://www.w3.org/2000/svg" height="812" xmlns:xlink="http://www.w3.org/1999/xlink" viewBox="0 0 742 812"><defs/><g id="page1" transform="translate(5.5,5.5)"><rect y="0" width="732" x="0" fill="#ffffff" height="802"/><path fill="#b2e8df" id="shape1" transform="translate(488.492844,179.924225)" d="M.0,.0L204.7,.0L204.7,207.5L.0,207.5L.0,.0z" fill-rule="nonzero"/><g id="group2" transform="translate(38.839000,177.091465)"><path fill="#ffecd1" id="shape3" d="M.0,.0L133.8,.0L133.8,210.3L.0,210.3L.0,.0z" fill-rule="nonzero"/><g id="group4" transform="translate(11.330963,22.662059)"><path fill="#a5a5a5" id="shape5" transform="translate(14.342769,24.872176)" d="M.0,.0L.0,2.0L1.9,2.0L1.9,.0L.0,.0zM.0,3.9L.0,5.9L1.9,5.9L1.9,3.9L.0,3.9zM.0,7.9L.0,9.9L1.9,9.9L1.9,7.9L.0,7.9zM.0,11.8L.0,13.8L1.9,13.8L1.9,11.8L.0,11.8zM.0,15.8L.0,17.8L1.9,17.8L1.9,15.8L.0,15.8zM.0,19.7L.0,21.7L1.9,21.7L1.9,19.7L.0,19.7zM.0,23.7L.0,25.6L1.9,25.6L1.9,23.7L.0,23.7zM.0,27.6L.0,29.6L1.9,29.6L1.9,27.6L.0,27.6zM.0,31.6L.0,33.5L1.9,33.5L1.9,31.6L.0,31.6zM.0,35.5L.0,37.5L1.9,37.5L1.9,35.5L.0,35.5zM.0,39.4L.0,41.4L1.9,41.4L1.9,39.4L.0,39.4zM3.9,7.9L3.9,9.9L5.8,9.9L5.8,7.9L3.9,7.9zM7.8,7.9L7.8,9.9L9.7,9.9L9.7,7.9L7.8,7.9zM3.9,39.4L3.9,41.4L5.8,41.4L5.8,39.4L3.9,39.4zM7.8,39.4L7.8,41.4L9.7,41.4L9.7,39.4L7.8,39.4zM11.7,39.4L11.7,41.4L13.6,41.4L13.6,39.4L11.7,39.4zM15.5,39.4L15.5,41.4L17.5,41.4L17.5,39.4L15.5,39.4zM19.4,39.4L19.4,41.4L21.4,41.4L21.4,39.4L19.4,39.4zM11.7,7.9L11.7,9.9L13.6,9.9L13.6,7.9L11.7,7.9zM15.5,7.9L15.5,9.9L17.5,9.9L17.5,7.9L15.5,7.9zM19.4,7.9L19.4,9.9L21.4,9.9L21.4,7.9L19.4,7.9zM23.3,7.9L23.3,9.9L25.2,9.9L25.2,7.9L23.3,7.9zM23.3,39.4L23.3,41.4L25.2,41.4L25.2,39.4L23.3,39.4zM27.2,39.4L27.2,41.4L29.1,41.4L29.1,39.4L27.2,39.4zM27.2,7.9L27.2,9.9L29.1,9.9L29.1,7.9L27.2,7.9zM31.1,7.9L31.1,9.9L33.0,9.9L33.0,7.9L31.1,7.9zM31.1,39.4L31.1,41.4L33.0,41.4L33.0,39.4L31.1,39.4z" fill-rule="nonzero"/><g id="group6" transform="translate(0.000000,0.001091)"><path fill="#ffcd55" stroke-width="1" id="shape7" stroke="#ffcd55" d="M30.8,5.7L30.8,24.9L.1,24.9L.0,2.2C.0,2.2,.0,-0.1,2.5,.0C2.5,.0,10.2,.0,10.2,.0L13.1,2.8L28.3,2.8C28.3,2.8,30.8,2.5,30.8,5.7z" fill-rule="nonzero"/><path fill="#ffe29b" stroke-width="1" id="shape8" stroke="#ffe29b" transform="translate(0.500374,5.082482)" d="M1.5,.0L28.3,.0C29.1,.0,29.8,.7,29.8,1.5L29.8,19.5L.0,19.5L.0,1.5C.0,.7,.7,.0,1.5,.0z" fill-rule="nonzero"/></g><g id="group9" transform="translate(47.122915,21.254618)"><path fill="#ffcd55" stroke-width="1" id="shape10" stroke="#ffcd55" d="M30.8,5.7L30.8,24.9L.1,24.9L.0,2.2C.0,2.2,.0,-0.1,2.5,.0C2.5,.0,10.2,.0,10.2,.0L13.1,2.8L28.3,2.8C28.3,2.8,30.8,2.5,30.8,5.7z" fill-rule="nonzero"/><path fill="#ffe29b" stroke-width="1" id="shape11" stroke="#ffe29b" transform="translate(0.500374,5.082482)" d="M1.5,.0L28.3,.0C29.1,.0,29.8,.7,29.8,1.5L29.8,19.5L.0,19.5L.0,1.5C.0,.7,.7,.0,1.5,.0z" fill-rule="nonzero"/></g><g id="group12" transform="translate(47.122915,52.959008)"><path fill="#ffcd55" stroke-width="1" id="shape13" stroke="#ffcd55" d="M30.8,5.7L30.8,24.9L.1,24.9L.0,2.2C.0,2.2,.0,-0.1,2.5,.0C2.5,.0,10.2,.0,10.2,.0L13.1,2.8L28.3,2.8C28.3,2.8,30.8,2.5,30.8,5.7z" fill-rule="nonzero"/><path fill="#ffe29b" stroke-width="1" id="shape14" stroke="#ffe29b" transform="translate(0.500374,5.082482)" d="M1.5,.0L28.3,.0C29.1,.0,29.8,.7,29.8,1.5L29.8,19.5L.0,19.5L.0,1.5C.0,.7,.7,.0,1.5,.0z" fill-rule="nonzero"/></g></g></g><g id="shape15" transform="translate(488.492844,119.728496)"><path fill="#21675e" stroke-width="1" stroke="#21675e" d="M18.0,.0L186.7,.0C196.6,.0,204.7,8.1,204.7,18.0L204.7,35.8C204.7,45.8,196.6,53.8,186.7,53.8L18.0,53.8C8.1,53.8,.0,45.8,.0,35.8L.0,18.0C.0,8.1,8.1,.0,18.0,.0z" fill-rule="nonzero"/><text xml:space="preserve" style="fill:#ffffff;font-family:Delius;font-size:18.00pt;font-weight:bold"><tspan y="35.9" x="27.8">Staging Area</tspan></text></g><g id="shape16" transform="translate(38.839000,119.728496)"><path fill="#ffd78e" stroke-width="1" stroke="#ff7e79" d="M11.0,.0L122.8,.0C128.9,.0,133.8,4.9,133.8,11.0L133.8,42.8C133.8,48.9,128.9,53.8,122.8,53.8L11.0,53.8C4.9,53.8,.0,48.9,.0,42.8L.0,11.0C.0,4.9,4.9,.0,11.0,.0z" fill-rule="nonzero"/><text xml:space="preserve" style="fill:#191919;font-family:Delius;font-size:18.00pt;font-weight:bold"><tspan y="20.9" x="20.4">working </tspan><tspan y="50.9" x="13.4">directory</tspan></text></g><g id="shape17" transform="translate(65.041536,293.234634)"><path fill="#44bdad" d="M.0,.0L.0,35.8L26.9,35.8L26.9,9.6L18.2,.0L.0,.0z" fill-rule="nonzero"/><path fill="none" stroke-width="1" stroke="#000000" d="M.0,.0L.0,35.8L26.9,35.8L26.9,9.6L18.2,.0L.0,.0zM26.9,9.6L18.2,9.6L18.2,.0"/></g><g id="shape18" transform="translate(65.041536,342.525369)"><path fill="#ff7e79" d="M.0,.0L.0,35.8L26.9,35.8L26.9,9.6L18.2,.0L.0,.0z" fill-rule="nonzero"/><path fill="none" stroke-width="1" stroke="#000000" d="M.0,.0L.0,35.8L26.9,35.8L26.9,9.6L18.2,.0L.0,.0zM26.9,9.6L18.2,9.6L18.2,.0"/></g><g id="shape19" transform="translate(510.800831,196.743739)"><path fill="#44bdad" d="M.0,.0L.0,35.8L26.9,35.8L26.9,9.6L18.2,.0L.0,.0z" fill-rule="nonzero"/><path fill="none" stroke-width="1" stroke="#000000" d="M.0,.0L.0,35.8L26.9,35.8L26.9,9.6L18.2,.0L.0,.0zM26.9,9.6L18.2,9.6L18.2,.0"/></g><g id="shape20" transform="translate(510.800831,254.992371)"><path fill="#ff7e79" d="M.0,.0L.0,35.8L26.9,35.8L26.9,9.6L18.2,.0L.0,.0z" fill-rule="nonzero"/><path fill="none" stroke-width="1" stroke="#000000" d="M.0,.0L.0,35.8L26.9,35.8L26.9,9.6L18.2,.0L.0,.0zM26.9,9.6L18.2,9.6L18.2,.0"/></g><path fill="none" stroke-width="1" id="shape21" stroke="#c2c2c2" transform="translate(91.952758,311.116432)" d="M.0,.0L109.0,.0C116.7,.0,123.0,-6.3,123.0,-14.0L123.0,-14.9C123.0,-22.6,116.7,-28.9,109.0,-28.9L80.7,-28.9"/><path fill="none" stroke-width="1" id="shape22" stroke="#c2c2c2" transform="translate(91.952758,360.407168)" d="M.0,.0L107.0,.0C115.3,.0,122.0,-6.7,122.0,-15.0L122.0,-63.1C122.0,-71.4,115.3,-78.1,107.0,-78.1L80.7,-78.1"/><g id="shape23" transform="translate(193.826307,239.135539)"><text xml:space="preserve" style="fill:#000000;font-family:Delius;font-size:18.00pt;font-weight:bold"><tspan y="22.5" x="36.2">git add</tspan></text></g><g id="shape24" transform="translate(340.338300,239.135539)"><path fill="#44bdad" d="M.0,.0L.0,27.2L20.5,27.2L20.5,7.3L13.8,.0L.0,.0z" fill-rule="nonzero"/><path fill="none" stroke-width="1" stroke="#000000" d="M.0,.0L.0,27.2L20.5,27.2L20.5,7.3L13.8,.0L.0,.0zM20.5,7.3L13.8,7.3L13.8,.0"/></g><g id="shape25" transform="translate(378.321218,239.135539)"><path fill="#ff7e79" d="M.0,.0L.0,27.2L20.5,27.2L20.5,7.3L13.8,.0L.0,.0z" fill-rule="nonzero"/><path fill="none" stroke-width="1" stroke="#000000" d="M.0,.0L.0,27.2L20.5,27.2L20.5,7.3L13.8,.0L.0,.0zM20.5,7.3L13.8,7.3L13.8,.0"/></g><g id="shape26" transform="translate(172.686920,282.257688)"><path fill="none" stroke-width="2.666666746139526" stroke="#000000" d="M.0,.0L312.3,.0"/><path stroke-linejoin="round" fill="none" stroke-width="2.66667" stroke-linecap="round" stroke="#000000" d="M307.5,-7.5L315.0,.0L307.5,7.5"/></g><g id="shape27" transform="translate(38.839000,38.426597)"><path fill="#d0f0ea" d="M.0,.0L654.3,.0L654.3,53.8L.0,53.8L.0,.0z" fill-rule="nonzero"/><text xml:space="preserve" style="fill:#000000;font-family:Delius;font-size:18.00pt;font-weight:bold"><tspan y="35.9" x="283.7">Staging</tspan></text></g><path fill="#b2e8df" id="shape28" transform="translate(488.494000,556.073403)" d="M.0,.0L204.7,.0L204.7,207.5L.0,207.5L.0,.0z" fill-rule="nonzero"/><g id="group29" transform="translate(38.839000,553.240403)"><path fill="#ffecd1" id="shape30" d="M.0,.0L133.8,.0L133.8,210.3L.0,210.3L.0,.0z" fill-rule="nonzero"/><g id="group31" transform="translate(11.330900,22.662100)"><path fill="#a5a5a5" id="shape32" transform="translate(14.342700,24.872100)" d="M.0,.0L.0,2.0L1.9,2.0L1.9,.0L.0,.0zM.0,3.9L.0,5.9L1.9,5.9L1.9,3.9L.0,3.9zM.0,7.9L.0,9.9L1.9,9.9L1.9,7.9L.0,7.9zM.0,11.8L.0,13.8L1.9,13.8L1.9,11.8L.0,11.8zM.0,15.8L.0,17.8L1.9,17.8L1.9,15.8L.0,15.8zM.0,19.7L.0,21.7L1.9,21.7L1.9,19.7L.0,19.7zM.0,23.7L.0,25.6L1.9,25.6L1.9,23.7L.0,23.7zM.0,27.6L.0,29.6L1.9,29.6L1.9,27.6L.0,27.6zM.0,31.6L.0,33.5L1.9,33.5L1.9,31.6L.0,31.6zM.0,35.5L.0,37.5L1.9,37.5L1.9,35.5L.0,35.5zM.0,39.4L.0,41.4L1.9,41.4L1.9,39.4L.0,39.4zM3.9,7.9L3.9,9.9L5.8,9.9L5.8,7.9L3.9,7.9zM7.8,7.9L7.8,9.9L9.7,9.9L9.7,7.9L7.8,7.9zM3.9,39.4L3.9,41.4L5.8,41.4L5.8,39.4L3.9,39.4zM7.8,39.4L7.8,41.4L9.7,41.4L9.7,39.4L7.8,39.4zM11.7,39.4L11.7,41.4L13.6,41.4L13.6,39.4L11.7,39.4zM15.5,39.4L15.5,41.4L17.5,41.4L17.5,39.4L15.5,39.4zM19.4,39.4L19.4,41.4L21.4,41.4L21.4,39.4L19.4,39.4zM11.7,7.9L11.7,9.9L13.6,9.9L13.6,7.9L11.7,7.9zM15.5,7.9L15.5,9.9L17.5,9.9L17.5,7.9L15.5,7.9zM19.4,7.9L19.4,9.9L21.4,9.9L21.4,7.9L19.4,7.9zM23.3,7.9L23.3,9.9L25.2,9.9L25.2,7.9L23.3,7.9zM23.3,39.4L23.3,41.4L25.2,41.4L25.2,39.4L23.3,39.4zM27.2,39.4L27.2,41.4L29.1,41.4L29.1,39.4L27.2,39.4zM27.2,7.9L27.2,9.9L29.1,9.9L29.1,7.9L27.2,7.9zM31.1,7.9L31.1,9.9L33.0,9.9L33.0,7.9L31.1,7.9zM31.1,39.4L31.1,41.4L33.0,41.4L33.0,39.4L31.1,39.4z" fill-rule="nonzero"/><g id="group33" transform="translate(0.000000,0.001100)"><path fill="#ffcd55" stroke-width="1" id="shape34" stroke="#ffcd55" d="M30.8,5.7L30.8,24.9L.1,24.9L.0,2.2C.0,2.2,.0,-0.1,2.5,.0C2.5,.0,10.2,.0,10.2,.0L13.1,2.8L28.3,2.8C28.3,2.8,30.8,2.5,30.8,5.7z" fill-rule="nonzero"/><path fill="#ffe29b" stroke-width="1" id="shape35" stroke="#ffe29b" transform="translate(0.500400,5.082450)" d="M1.5,.0L28.3,.0C29.1,.0,29.8,.7,29.8,1.5L29.8,19.5L.0,19.5L.0,1.5C.0,.7,.7,.0,1.5,.0z" fill-rule="nonzero"/></g><g id="group36" transform="translate(47.122900,21.254600)"><path fill="#ffcd55" stroke-width="1" id="shape37" stroke="#ffcd55" d="M30.8,5.7L30.8,24.9L.1,24.9L.0,2.2C.0,2.2,.0,-0.1,2.5,.0C2.5,.0,10.2,.0,10.2,.0L13.1,2.8L28.3,2.8C28.3,2.8,30.8,2.5,30.8,5.7z" fill-rule="nonzero"/><path fill="#ffe29b" stroke-width="1" id="shape38" stroke="#ffe29b" transform="translate(0.500400,5.082450)" d="M1.5,.0L28.3,.0C29.1,.0,29.8,.7,29.8,1.5L29.8,19.5L.0,19.5L.0,1.5C.0,.7,.7,.0,1.5,.0z" fill-rule="nonzero"/></g><g id="group39" transform="translate(47.122900,52.959000)"><path fill="#ffcd55" stroke-width="1" id="shape40" stroke="#ffcd55" d="M30.8,5.7L30.8,24.9L.1,24.9L.0,2.2C.0,2.2,.0,-0.1,2.5,.0C2.5,.0,10.2,.0,10.2,.0L13.1,2.8L28.3,2.8C28.3,2.8,30.8,2.5,30.8,5.7z" fill-rule="nonzero"/><path fill="#ffe29b" stroke-width="1" id="shape41" stroke="#ffe29b" transform="translate(0.500400,5.082450)" d="M1.5,.0L28.3,.0C29.1,.0,29.8,.7,29.8,1.5L29.8,19.5L.0,19.5L.0,1.5C.0,.7,.7,.0,1.5,.0z" fill-rule="nonzero"/></g></g></g><g id="shape42" transform="translate(488.494000,495.878203)"><path fill="#21675e" stroke-width="1" stroke="#21675e" d="M18.0,.0L186.7,.0C196.6,.0,204.7,8.1,204.7,18.0L204.7,35.8C204.7,45.8,196.6,53.8,186.7,53.8L18.0,53.8C8.1,53.8,.0,45.8,.0,35.8L.0,18.0C.0,8.1,8.1,.0,18.0,.0z" fill-rule="nonzero"/><text xml:space="preserve" style="fill:#ffffff;font-family:Delius;font-size:18.00pt;font-weight:bold"><tspan y="35.9" x="27.8">Staging Area</tspan></text></g><g id="shape43" transform="translate(38.839000,495.878203)"><path fill="#ffd78e" stroke-width="1" stroke="#ff7e79" d="M11.0,.0L122.8,.0C128.9,.0,133.8,4.9,133.8,11.0L133.8,42.8C133.8,48.9,128.9,53.8,122.8,53.8L11.0,53.8C4.9,53.8,.0,48.9,.0,42.8L.0,11.0C.0,4.9,4.9,.0,11.0,.0z" fill-rule="nonzero"/><text xml:space="preserve" style="fill:#191919;font-family:Delius;font-size:18.00pt;font-weight:bold"><tspan y="20.9" x="20.4">working </tspan><tspan y="50.9" x="13.4">directory</tspan></text></g><g id="shape44" transform="translate(65.042400,669.383603)"><path fill="#44bdad" d="M.0,.0L.0,35.8L26.9,35.8L26.9,9.6L18.2,.0L.0,.0z" fill-rule="nonzero"/><path fill="none" stroke-width="1" stroke="#000000" d="M.0,.0L.0,35.8L26.9,35.8L26.9,9.6L18.2,.0L.0,.0zM26.9,9.6L18.2,9.6L18.2,.0"/></g><g id="shape45" transform="translate(65.042400,718.674603)"><path fill="#ff7e79" d="M.0,.0L.0,35.8L26.9,35.8L26.9,9.6L18.2,.0L.0,.0z" fill-rule="nonzero"/><path fill="none" stroke-width="1" stroke="#000000" d="M.0,.0L.0,35.8L26.9,35.8L26.9,9.6L18.2,.0L.0,.0zM26.9,9.6L18.2,9.6L18.2,.0"/></g><g id="shape46" transform="translate(510.801400,572.892603)"><path fill="#44bdad" d="M.0,.0L.0,35.8L26.9,35.8L26.9,9.6L18.2,.0L.0,.0z" fill-rule="nonzero"/><path fill="none" stroke-width="1" stroke="#000000" d="M.0,.0L.0,35.8L26.9,35.8L26.9,9.6L18.2,.0L.0,.0zM26.9,9.6L18.2,9.6L18.2,.0"/></g><path fill="none" stroke-width="1" id="shape47" stroke="#c2c2c2" transform="translate(91.953600,687.265403)" d="M.0,.0L109.0,.0C116.7,.0,123.0,-6.3,123.0,-14.0L123.0,-14.9C123.0,-22.6,116.7,-28.9,109.0,-28.9L80.7,-28.9"/><path fill="none" stroke-width="1" id="shape48" stroke="#c2c2c2" transform="translate(91.953600,736.556403)" d="M.0,.0L107.0,.0C115.3,.0,122.0,-6.7,122.0,-15.0L122.0,-63.2C122.0,-71.4,115.3,-78.2,107.0,-78.2L80.7,-78.2"/><g id="shape49" transform="translate(155.826307,590.932753)"><text xml:space="preserve" style="fill:#000000;font-family:Delius;font-size:14.00pt;font-weight:bold"><tspan y="45.0" x="37.0">$ git restore --staged </tspan></text></g><g id="shape50" transform="translate(418.352513,615.284303)"><path fill="#ff7e79" d="M.0,.0L.0,27.2L20.5,27.2L20.5,7.3L13.8,.0L.0,.0z" fill-rule="nonzero"/><path fill="none" stroke-width="1" stroke="#000000" d="M.0,.0L.0,27.2L20.5,27.2L20.5,7.3L13.8,.0L.0,.0zM20.5,7.3L13.8,7.3L13.8,.0"/></g><g id="shape51" transform="translate(38.840000,414.576203)"><path fill="#ffd78e" d="M.0,.0L654.3,.0L654.3,53.8L.0,53.8L.0,.0z" fill-rule="nonzero"/><text xml:space="preserve" style="fill:#000000;font-family:Delius;font-size:18.00pt;font-weight:bold"><tspan y="36.0" x="268.7">Unstaging</tspan></text></g><g id="shape52" transform="translate(488.494000,659.823403)"><path fill="none" stroke-width="4" stroke="#000000" d="M.0,.0L-262.5,.0C-265.3,.0,-267.0,-2.1,-269.4,-4.5C-270.6,-5.7,-272.2,-6.5,-274.0,-6.5C-275.9,-6.5,-277.5,-5.7,-278.7,-4.5C-281.0,-2.1,-282.8,.0,-285.5,.0L-306.0,.0"/><path fill="#000000" stroke-width="1" stroke-linecap="round" stroke="#000000" d="M-306.0,9.0L-315.0,.0L-306.0,-9.0L-306.0,9.0"/></g><g id="shape53" transform="translate(278.794629,529.000000)"><text xml:space="preserve" style="fill:#c2c2c2;font-family:Delius;font-size:10.50pt;font-weight:bold"><tspan y="24.0" x="26.0" style="text-decoration:underline">Nh-em0n</tspan></text></g></g></svg>