<svg xmlns:ev="http://www.w3.org/2001/xml-events" width="1070" height="613" xmlns:xlink="http://www.w3.org/1999/xlink" viewBox="0 0 1070 613" xmlns="http://www.w3.org/2000/svg"><defs/><g transform="translate(5.5,5.5)" id="page1"><rect width="1060" height="603" fill="#ffffff" y="0" x="0"/><path d="M.0,.0L289.0,.0L289.0,293.0L.0,293.0L.0,.0z" fill="#b2e8df" fill-rule="nonzero" transform="translate(385.019385,122.775291)" id="shape1"/><g transform="translate(831.519385,117.525291)" id="group2"><g id="group3"/><path d="M.0,48.4C.0,21.7,16.2,.0,36.1,.0C56.1,.0,72.2,21.7,72.2,48.4C72.2,75.1,56.1,96.8,36.1,96.8C16.2,96.8,.0,75.1,.0,48.4zM36.1,91.2C53.7,91.2,68.0,72.0,68.0,48.4C68.0,24.8,53.7,5.7,36.1,5.7C18.5,5.7,4.2,24.8,4.2,48.4C4.2,72.0,18.5,91.2,36.1,91.2zM54.7,51.2L38.2,51.2L38.2,73.3L34.0,73.3L34.0,51.2L17.5,51.2L17.5,45.6L34.0,45.6L34.0,23.6L38.2,23.6L38.2,45.6L54.7,45.6L54.7,51.2z" fill="#717070" stroke-width="1" fill-rule="nonzero" stroke="#717070" transform="translate(116.771400,195.284300)" id="shape4"/><path d="M2.8,25.4C2.8,11.4,38.6,.0,82.8,.0C126.9,.0,162.7,11.4,162.7,25.4C162.7,39.4,126.9,50.8,82.8,50.8C38.6,50.8,2.8,39.4,2.8,25.4zM165.5,37.7L165.5,104.4C165.5,104.7,165.5,104.9,165.5,105.1C165.5,120.9,128.5,133.7,82.8,133.7C37.1,133.7,.0,120.9,.0,105.1C.0,104.9,.0,104.7,.0,104.4L.0,37.7C5.8,51.7,40.7,62.5,82.8,62.5C124.8,62.5,159.7,51.7,165.5,37.7zM165.5,120.0L165.5,186.7C165.5,186.9,165.5,187.1,165.5,187.4C165.5,188.7,165.2,190.1,164.7,191.5C160.9,189.9,157.0,189.1,152.9,189.1C138.9,189.1,126.5,198.6,119.2,213.1C108.2,214.9,95.8,216.0,82.8,216.0C37.1,216.0,.0,203.2,.0,187.4C.0,187.1,.0,186.9,.0,186.7L.0,120.0C5.8,134.0,40.7,144.7,82.8,144.7C124.8,144.7,159.7,134.0,165.5,120.0zM82.8,298.3C37.1,298.3,.0,285.4,.0,269.6C.0,269.4,.0,269.2,.0,269.0L.0,202.3C5.8,216.3,40.7,227.0,82.8,227.0C94.1,227.0,104.8,226.2,114.7,224.8C113.1,230.7,112.2,237.1,112.2,243.7C112.2,264.7,121.1,283.0,134.1,292.1C120.0,295.9,102.1,298.3,82.8,298.3z" fill="#00a2ff" stroke-width="1" fill-rule="nonzero" stroke="#00a2ff" id="shape5"/></g><g transform="translate(38.519385,120.775291)" id="group6"><path d="M.0,.0L189.0,.0L189.0,297.0L.0,297.0L.0,.0z" fill="#ffecd1" fill-rule="nonzero" id="shape7"/><g transform="translate(16.000000,32.000000)" id="group8"><path d="M.0,.0L.0,2.8L2.7,2.8L2.7,.0L.0,.0zM.0,5.6L.0,8.4L2.7,8.4L2.7,5.6L.0,5.6zM.0,11.1L.0,13.9L2.7,13.9L2.7,11.1L.0,11.1zM.0,16.7L.0,19.5L2.7,19.5L2.7,16.7L.0,16.7zM.0,22.3L.0,25.1L2.7,25.1L2.7,22.3L.0,22.3zM.0,27.9L.0,30.6L2.7,30.6L2.7,27.9L.0,27.9zM.0,33.4L.0,36.2L2.7,36.2L2.7,33.4L.0,33.4zM.0,39.0L.0,41.8L2.7,41.8L2.7,39.0L.0,39.0zM.0,44.6L.0,47.3L2.7,47.3L2.7,44.6L.0,44.6zM.0,50.1L.0,52.9L2.7,52.9L2.7,50.1L.0,50.1zM.0,55.7L.0,58.5L2.7,58.5L2.7,55.7L.0,55.7zM5.5,11.1L5.5,13.9L8.2,13.9L8.2,11.1L5.5,11.1zM11.0,11.1L11.0,13.9L13.7,13.9L13.7,11.1L11.0,11.1zM5.5,55.7L5.5,58.5L8.2,58.5L8.2,55.7L5.5,55.7zM11.0,55.7L11.0,58.5L13.7,58.5L13.7,55.7L11.0,55.7zM16.5,55.7L16.5,58.5L19.2,58.5L19.2,55.7L16.5,55.7zM21.9,55.7L21.9,58.5L24.7,58.5L24.7,55.7L21.9,55.7zM27.4,55.7L27.4,58.5L30.2,58.5L30.2,55.7L27.4,55.7zM16.5,11.1L16.5,13.9L19.2,13.9L19.2,11.1L16.5,11.1zM21.9,11.1L21.9,13.9L24.7,13.9L24.7,11.1L21.9,11.1zM27.4,11.1L27.4,13.9L30.2,13.9L30.2,11.1L27.4,11.1zM32.9,11.1L32.9,13.9L35.6,13.9L35.6,11.1L32.9,11.1zM32.9,55.7L32.9,58.5L35.6,58.5L35.6,55.7L32.9,55.7zM38.4,55.7L38.4,58.5L41.1,58.5L41.1,55.7L38.4,55.7zM38.4,11.1L38.4,13.9L41.1,13.9L41.1,11.1L38.4,11.1zM43.9,11.1L43.9,13.9L46.6,13.9L46.6,11.1L43.9,11.1zM43.9,55.7L43.9,58.5L46.6,58.5L46.6,55.7L43.9,55.7z" fill="#a5a5a5" fill-rule="nonzero" transform="translate(20.252700,35.120800)" id="shape9"/><g transform="translate(0.000000,0.001500)" id="group10"><path d="M43.5,8.1L43.5,35.2L.1,35.2L.0,3.1C.0,3.1,.0,-0.1,3.6,.0C3.6,.0,14.3,.0,14.3,.0L18.6,4.0L39.9,4.0C39.9,4.0,43.5,3.6,43.5,8.1z" fill="#ffcd55" stroke-width="1" fill-rule="nonzero" stroke="#ffcd55" id="shape11"/><path d="M2.1,.0L40.0,.0C41.1,.0,42.0,.9,42.0,2.1L42.0,27.5L.0,27.5L.0,2.1C.0,.9,.9,.0,2.1,.0z" fill="#ffe29b" stroke-width="1" fill-rule="nonzero" stroke="#ffe29b" transform="translate(0.706600,7.176700)" id="shape12"/></g><g transform="translate(66.539800,30.012600)" id="group13"><path d="M43.5,8.1L43.5,35.2L.1,35.2L.0,3.1C.0,3.1,.0,-0.1,3.6,.0C3.6,.0,14.3,.0,14.3,.0L18.6,4.0L39.9,4.0C39.9,4.0,43.5,3.6,43.5,8.1z" fill="#ffcd55" stroke-width="1" fill-rule="nonzero" stroke="#ffcd55" id="shape14"/><path d="M2.1,.0L40.0,.0C41.1,.0,42.0,.9,42.0,2.1L42.0,27.5L.0,27.5L.0,2.1C.0,.9,.9,.0,2.1,.0z" fill="#ffe29b" stroke-width="1" fill-rule="nonzero" stroke="#ffe29b" transform="translate(0.706600,7.176700)" id="shape15"/></g><g transform="translate(66.539800,74.780800)" id="group16"><path d="M43.5,8.1L43.5,35.2L.1,35.2L.0,3.1C.0,3.1,.0,-0.1,3.6,.0C3.6,.0,14.3,.0,14.3,.0L18.6,4.0L39.9,4.0C39.9,4.0,43.5,3.6,43.5,8.1z" fill="#ffcd55" stroke-width="1" fill-rule="nonzero" stroke="#ffcd55" id="shape17"/><path d="M2.1,.0L40.0,.0C41.1,.0,42.0,.9,42.0,2.1L42.0,27.5L.0,27.5L.0,2.1C.0,.9,.9,.0,2.1,.0z" fill="#ffe29b" stroke-width="1" fill-rule="nonzero" stroke="#ffe29b" transform="translate(0.706600,7.176700)" id="shape18"/></g></g></g><g transform="translate(831.519385,38.775691)" id="shape19"><path d="M11.0,.0L159.0,.0C165.1,.0,170.0,4.9,170.0,11.0L170.0,65.0C170.0,71.1,165.1,76.0,159.0,76.0L11.0,76.0C4.9,76.0,.0,71.1,.0,65.0L.0,11.0C.0,4.9,4.9,.0,11.0,.0z" fill="#1d397b" stroke-width="1" fill-rule="nonzero" stroke="#1d397b"/><text xml:space="preserve" style="fill:#ffffff;font-family:Delius;font-size:18.00pt;font-weight:bold"><tspan y="47.0" x="34.0">Commits</tspan></text></g><g transform="translate(385.019385,38.775691)" id="shape20"><path d="M18.0,.0L271.0,.0C280.9,.0,289.0,8.1,289.0,18.0L289.0,58.0C289.0,67.9,280.9,76.0,271.0,76.0L18.0,76.0C8.1,76.0,.0,67.9,.0,58.0L.0,18.0C.0,8.1,8.1,.0,18.0,.0z" fill="#21675e" stroke-width="1" fill-rule="nonzero" stroke="#21675e"/><text xml:space="preserve" style="fill:#ffffff;font-family:Delius;font-size:18.00pt;font-weight:bold"><tspan y="47.0" x="70.0">Staging Area</tspan></text></g><g transform="translate(38.519385,39.775691)" id="shape21"><path d="M11.0,.0L178.0,.0C184.1,.0,189.0,4.9,189.0,11.0L189.0,65.0C189.0,71.1,184.1,76.0,178.0,76.0L11.0,76.0C4.9,76.0,.0,71.1,.0,65.0L.0,11.0C.0,4.9,4.9,.0,11.0,.0z" fill="#ffd78e" stroke-width="1" fill-rule="nonzero" stroke="#ff7e79"/><text xml:space="preserve" style="fill:#191919;font-family:Delius;font-size:18.00pt;font-weight:bold"><tspan y="32.0" x="48.0">working </tspan><tspan y="62.0" x="41.0">directory</tspan></text></g><g transform="translate(75.519185,284.775291)" id="shape22"><path d="M.0,.0L.0,50.5L38.0,50.5L38.0,13.6L25.7,.0L.0,.0z" fill="#44bdad" fill-rule="nonzero"/><path d="M.0,.0L.0,50.5L38.0,50.5L38.0,13.6L25.7,.0L.0,.0zM38.0,13.6L25.7,13.6L25.7,.0" fill="none" stroke-width="1" stroke="#000000"/></g><g transform="translate(75.519185,354.376291)" id="shape23"><path d="M.0,.0L.0,50.5L38.0,50.5L38.0,13.6L25.7,.0L.0,.0z" fill="#ff7e79" fill-rule="nonzero"/><path d="M.0,.0L.0,50.5L38.0,50.5L38.0,13.6L25.7,.0L.0,.0zM38.0,13.6L25.7,13.6L25.7,.0" fill="none" stroke-width="1" stroke="#000000"/></g><g transform="translate(416.519385,146.525291)" id="shape24"><path d="M.0,.0L.0,50.5L38.0,50.5L38.0,13.6L25.7,.0L.0,.0z" fill="#44bdad" fill-rule="nonzero"/><path d="M.0,.0L.0,50.5L38.0,50.5L38.0,13.6L25.7,.0L.0,.0zM38.0,13.6L25.7,13.6L25.7,.0" fill="none" stroke-width="1" stroke="#000000"/></g><g transform="translate(416.519385,228.775291)" id="shape25"><path d="M.0,.0L.0,50.5L38.0,50.5L38.0,13.6L25.7,.0L.0,.0z" fill="#ff7e79" fill-rule="nonzero"/><path d="M.0,.0L.0,50.5L38.0,50.5L38.0,13.6L25.7,.0L.0,.0zM38.0,13.6L25.7,13.6L25.7,.0" fill="none" stroke-width="1" stroke="#000000"/></g><g transform="translate(227.519385,269.275291)" id="shape26"><path d="M.0,.0L.0,87.2C.0,87.2,.0,87.2,.0,87.2L2.0,87.2C2.0,87.2,2.0,87.2,2.0,87.2C2.0,83.9,4.7,81.2,8.0,81.2C9.9,81.2,11.6,82.1,12.7,83.5C14.4,85.7,15.8,87.2,18.0,87.2L104.6,87.2C112.9,87.2,119.6,94.0,119.6,102.2L119.6,169.2" fill="none" stroke-width="5.333330154418945" stroke-dasharray="6,4" stroke="#c2c2c2"/><path d="M129.9,164.3L119.6,174.5L109.4,164.3" stroke-linecap="round" fill="none" stroke-width="5.33333" stroke="#c2c2c2" stroke-linejoin="round"/></g><path d="M.0,.0L104.0,.0C106.2,.0,107.6,-1.6,109.3,-3.7C110.4,-5.1,112.1,-6.0,114.0,-6.0C117.0,-6.0,119.4,-3.8,119.9,-1.0C120.0,-0.3,120.4,.0,121.0,.0L122.0,.0C122.6,.0,123.0,-0.4,123.0,-1.0L123.0,-36.8C123.0,-39.0,121.2,-40.8,119.0,-40.8L114.0,-40.8" fill="none" stroke-width="1" stroke="#c2c2c2" transform="translate(113.519185,310.025291)" id="shape27"/><path d="M.0,.0L107.0,.0C115.3,.0,122.0,-6.7,122.0,-15.0L122.0,-107.4C122.0,-109.0,120.7,-110.4,119.0,-110.4L114.0,-110.4" fill="none" stroke-width="1" stroke="#c2c2c2" transform="translate(113.519185,379.626291)" id="shape28"/><g transform="translate(674.019385,269.275291)" id="shape29"><path d="M.0,.0L149.5,.0C152.8,.0,155.5,2.7,155.5,6.0L155.5,9.7" fill="none" stroke-width="4" stroke="#000000"/><path d="M164.5,4.7L155.5,13.7L146.5,4.7" stroke-linecap="round" fill="none" stroke-width="4" stroke="#000000" stroke-linejoin="round"/></g><path d="M.0,.0L213.0,.0C221.3,.0,228.0,6.7,228.0,15.0L228.0,93.5C228.0,95.7,226.2,97.5,224.0,97.5L219.5,97.5" fill="none" stroke-width="1" stroke="#696969" transform="translate(454.519385,171.775291)" id="shape30"/><path d="M.0,.0L225.0,.0C226.7,.0,228.0,1.3,228.0,3.0L228.0,4.8C228.0,6.5,226.7,7.8,225.0,7.8L219.5,7.8" fill="none" stroke-width="1" stroke="#595959" transform="translate(454.519385,261.440660)" id="shape31"/><g transform="translate(246.269385,209.775291)" id="shape32"><text xml:space="preserve" style="fill:#000000;font-family:Delius;font-size:18.00pt;font-weight:bold"><tspan y="28.0" x="19.5">git add</tspan></text></g><g transform="translate(692.769385,190.775291)" id="shape33"><text xml:space="preserve" style="fill:#000000;font-family:Delius;font-size:18.00pt;font-weight:bold"><tspan y="32.0" x="45.5">git </tspan><tspan y="62.0" x="17.0">commit</tspan></text></g><g transform="translate(802.259543,511.925097)" id="shape34"><text xml:space="preserve" style="fill:#9b9b9b;font-family:Delius;font-size:18.00pt;font-weight:bold"><tspan y="28.0" style="text-decoration:underline" x="4.0">Nh-em0n</tspan></text></g><g transform="translate(133.019385,417.775291)" id="shape35"><path d="M.0,.0L.0,13.0C.0,20.2,5.8,26.0,13.0,26.0L769.0,26.0C776.7,26.0,783.0,19.7,783.0,12.0L783.0,3.7" fill="none" stroke-width="6.666666507720947" stroke="#ffc000"/><path d="M772.7,17.7L783.0,-3.0L793.3,17.7" stroke-linecap="round" fill="none" stroke-width="6.66667" stroke="#ffc000" stroke-linejoin="round"/></g><g transform="translate(307.463829,496.925097)" id="shape36"><path d="M.0,.0L444.1,.0L444.1,68.0L.0,68.0L.0,.0z" fill="#ffc0be" fill-rule="nonzero"/><text xml:space="preserve" style="fill:#000000;font-family:Delius;font-size:22.00pt;font-weight:bold"><tspan y="44.5" x="69.1">Skipping Staging Area</tspan></text></g></g></svg>