<svg height="467" viewBox="0 0 2179 467" xmlns="http://www.w3.org/2000/svg" xmlns:xlink="http://www.w3.org/1999/xlink" xmlns:ev="http://www.w3.org/2001/xml-events" width="2179"><defs/><g id="page1" transform="translate(5.5,5.5)"><rect height="457" x="0" y="0" fill="#ffffff" width="2169"/><path fill-rule="nonzero" id="shape1" transform="translate(385.279528,122.850194)" fill="#b2e8df" d="M.0,.0L289.0,.0L289.0,293.0L.0,293.0L.0,.0z"/><g id="group2" transform="translate(831.779528,117.600194)"><g id="group3"/><path fill-rule="nonzero" id="shape4" transform="translate(116.771400,195.284300)" fill="#717070" d="M.0,48.4C.0,21.7,16.2,.0,36.1,.0C56.1,.0,72.2,21.7,72.2,48.4C72.2,75.1,56.1,96.8,36.1,96.8C16.2,96.8,.0,75.1,.0,48.4zM36.1,91.2C53.7,91.2,68.0,72.0,68.0,48.4C68.0,24.8,53.7,5.7,36.1,5.7C18.5,5.7,4.2,24.8,4.2,48.4C4.2,72.0,18.5,91.2,36.1,91.2zM54.7,51.2L38.2,51.2L38.2,73.3L34.0,73.3L34.0,51.2L17.5,51.2L17.5,45.6L34.0,45.6L34.0,23.6L38.2,23.6L38.2,45.6L54.7,45.6L54.7,51.2z" stroke="#717070" stroke-width="1"/><path fill-rule="nonzero" id="shape5" fill="#00a2ff" d="M2.8,25.4C2.8,11.4,38.6,.0,82.8,.0C126.9,.0,162.7,11.4,162.7,25.4C162.7,39.4,126.9,50.8,82.8,50.8C38.6,50.8,2.8,39.4,2.8,25.4zM165.5,37.7L165.5,104.4C165.5,104.7,165.5,104.9,165.5,105.1C165.5,120.9,128.5,133.7,82.8,133.7C37.1,133.7,.0,120.9,.0,105.1C.0,104.9,.0,104.7,.0,104.4L.0,37.7C5.8,51.7,40.7,62.5,82.8,62.5C124.8,62.5,159.7,51.7,165.5,37.7zM165.5,120.0L165.5,186.7C165.5,186.9,165.5,187.1,165.5,187.4C165.5,188.7,165.2,190.1,164.7,191.5C160.9,189.9,157.0,189.1,152.9,189.1C138.9,189.1,126.5,198.6,119.2,213.1C108.2,214.9,95.8,216.0,82.8,216.0C37.1,216.0,.0,203.2,.0,187.4C.0,187.1,.0,186.9,.0,186.7L.0,120.0C5.8,134.0,40.7,144.7,82.8,144.7C124.8,144.7,159.7,134.0,165.5,120.0zM82.8,298.3C37.1,298.3,.0,285.4,.0,269.6C.0,269.4,.0,269.2,.0,269.0L.0,202.3C5.8,216.3,40.7,227.0,82.8,227.0C94.1,227.0,104.8,226.2,114.7,224.8C113.1,230.7,112.2,237.1,112.2,243.7C112.2,264.7,121.1,283.0,134.1,292.1C120.0,295.9,102.1,298.3,82.8,298.3z" stroke="#00a2ff" stroke-width="1"/></g><g id="group6" transform="translate(38.779528,120.850194)"><path fill-rule="nonzero" id="shape7" fill="#ffecd1" d="M.0,.0L189.0,.0L189.0,297.0L.0,297.0L.0,.0z"/><g id="group8" transform="translate(16.000000,32.000000)"><path fill-rule="nonzero" id="shape9" transform="translate(20.252700,35.120800)" fill="#a5a5a5" d="M.0,.0L.0,2.8L2.7,2.8L2.7,.0L.0,.0zM.0,5.6L.0,8.4L2.7,8.4L2.7,5.6L.0,5.6zM.0,11.1L.0,13.9L2.7,13.9L2.7,11.1L.0,11.1zM.0,16.7L.0,19.5L2.7,19.5L2.7,16.7L.0,16.7zM.0,22.3L.0,25.1L2.7,25.1L2.7,22.3L.0,22.3zM.0,27.9L.0,30.6L2.7,30.6L2.7,27.9L.0,27.9zM.0,33.4L.0,36.2L2.7,36.2L2.7,33.4L.0,33.4zM.0,39.0L.0,41.8L2.7,41.8L2.7,39.0L.0,39.0zM.0,44.6L.0,47.3L2.7,47.3L2.7,44.6L.0,44.6zM.0,50.1L.0,52.9L2.7,52.9L2.7,50.1L.0,50.1zM.0,55.7L.0,58.5L2.7,58.5L2.7,55.7L.0,55.7zM5.5,11.1L5.5,13.9L8.2,13.9L8.2,11.1L5.5,11.1zM11.0,11.1L11.0,13.9L13.7,13.9L13.7,11.1L11.0,11.1zM5.5,55.7L5.5,58.5L8.2,58.5L8.2,55.7L5.5,55.7zM11.0,55.7L11.0,58.5L13.7,58.5L13.7,55.7L11.0,55.7zM16.5,55.7L16.5,58.5L19.2,58.5L19.2,55.7L16.5,55.7zM21.9,55.7L21.9,58.5L24.7,58.5L24.7,55.7L21.9,55.7zM27.4,55.7L27.4,58.5L30.2,58.5L30.2,55.7L27.4,55.7zM16.5,11.1L16.5,13.9L19.2,13.9L19.2,11.1L16.5,11.1zM21.9,11.1L21.9,13.9L24.7,13.9L24.7,11.1L21.9,11.1zM27.4,11.1L27.4,13.9L30.2,13.9L30.2,11.1L27.4,11.1zM32.9,11.1L32.9,13.9L35.6,13.9L35.6,11.1L32.9,11.1zM32.9,55.7L32.9,58.5L35.6,58.5L35.6,55.7L32.9,55.7zM38.4,55.7L38.4,58.5L41.1,58.5L41.1,55.7L38.4,55.7zM38.4,11.1L38.4,13.9L41.1,13.9L41.1,11.1L38.4,11.1zM43.9,11.1L43.9,13.9L46.6,13.9L46.6,11.1L43.9,11.1zM43.9,55.7L43.9,58.5L46.6,58.5L46.6,55.7L43.9,55.7z"/><g id="group10" transform="translate(0.000000,0.001500)"><path fill-rule="nonzero" id="shape11" fill="#ffcd55" d="M43.5,8.1L43.5,35.2L.1,35.2L.0,3.1C.0,3.1,.0,-0.1,3.6,.0C3.6,.0,14.3,.0,14.3,.0L18.6,4.0L39.9,4.0C39.9,4.0,43.5,3.6,43.5,8.1z" stroke="#ffcd55" stroke-width="1"/><path fill-rule="nonzero" id="shape12" transform="translate(0.706600,7.176700)" fill="#ffe29b" d="M2.1,.0L40.0,.0C41.1,.0,42.0,.9,42.0,2.1L42.0,27.5L.0,27.5L.0,2.1C.0,.9,.9,.0,2.1,.0z" stroke="#ffe29b" stroke-width="1"/></g><g id="group13" transform="translate(66.539800,30.012600)"><path fill-rule="nonzero" id="shape14" fill="#ffcd55" d="M43.5,8.1L43.5,35.2L.1,35.2L.0,3.1C.0,3.1,.0,-0.1,3.6,.0C3.6,.0,14.3,.0,14.3,.0L18.6,4.0L39.9,4.0C39.9,4.0,43.5,3.6,43.5,8.1z" stroke="#ffcd55" stroke-width="1"/><path fill-rule="nonzero" id="shape15" transform="translate(0.706600,7.176700)" fill="#ffe29b" d="M2.1,.0L40.0,.0C41.1,.0,42.0,.9,42.0,2.1L42.0,27.5L.0,27.5L.0,2.1C.0,.9,.9,.0,2.1,.0z" stroke="#ffe29b" stroke-width="1"/></g><g id="group16" transform="translate(66.539800,74.780800)"><path fill-rule="nonzero" id="shape17" fill="#ffcd55" d="M43.5,8.1L43.5,35.2L.1,35.2L.0,3.1C.0,3.1,.0,-0.1,3.6,.0C3.6,.0,14.3,.0,14.3,.0L18.6,4.0L39.9,4.0C39.9,4.0,43.5,3.6,43.5,8.1z" stroke="#ffcd55" stroke-width="1"/><path fill-rule="nonzero" id="shape18" transform="translate(0.706600,7.176700)" fill="#ffe29b" d="M2.1,.0L40.0,.0C41.1,.0,42.0,.9,42.0,2.1L42.0,27.5L.0,27.5L.0,2.1C.0,.9,.9,.0,2.1,.0z" stroke="#ffe29b" stroke-width="1"/></g></g></g><g id="shape19" transform="translate(831.779528,38.850594)"><path fill-rule="nonzero" fill="#1d397b" d="M11.0,.0L159.0,.0C165.1,.0,170.0,4.9,170.0,11.0L170.0,65.0C170.0,71.1,165.1,76.0,159.0,76.0L11.0,76.0C4.9,76.0,.0,71.1,.0,65.0L.0,11.0C.0,4.9,4.9,.0,11.0,.0z" stroke="#1d397b" stroke-width="1"/><text style="fill:#ffffff;font-family:Delius;font-size:18.00pt;font-weight:bold" xml:space="preserve"><tspan x="34.0" y="47.0">Commits</tspan></text></g><g id="shape20" transform="translate(385.279528,38.850594)"><path fill-rule="nonzero" fill="#21675e" d="M18.0,.0L271.0,.0C280.9,.0,289.0,8.1,289.0,18.0L289.0,58.0C289.0,67.9,280.9,76.0,271.0,76.0L18.0,76.0C8.1,76.0,.0,67.9,.0,58.0L.0,18.0C.0,8.1,8.1,.0,18.0,.0z" stroke="#21675e" stroke-width="1"/><text style="fill:#ffffff;font-family:Delius;font-size:18.00pt;font-weight:bold" xml:space="preserve"><tspan x="70.0" y="47.0">Staging Area</tspan></text></g><g id="shape21" transform="translate(38.779528,39.850594)"><path fill-rule="nonzero" fill="#ffd78e" d="M11.0,.0L178.0,.0C184.1,.0,189.0,4.9,189.0,11.0L189.0,65.0C189.0,71.1,184.1,76.0,178.0,76.0L11.0,76.0C4.9,76.0,.0,71.1,.0,65.0L.0,11.0C.0,4.9,4.9,.0,11.0,.0z" stroke="#ff7e79" stroke-width="1"/><text style="fill:#191919;font-family:Delius;font-size:18.00pt;font-weight:bold" xml:space="preserve"><tspan x="48.0" y="32.0">working </tspan><tspan x="41.0" y="62.0">directory</tspan></text></g><g id="shape22" transform="translate(75.779328,284.850194)"><path fill-rule="nonzero" fill="#44bdad" d="M.0,.0L.0,50.5L38.0,50.5L38.0,13.6L25.7,.0L.0,.0z"/><path stroke="#000000" d="M.0,.0L.0,50.5L38.0,50.5L38.0,13.6L25.7,.0L.0,.0zM38.0,13.6L25.7,13.6L25.7,.0" fill="none" stroke-width="1"/></g><g id="shape23" transform="translate(75.779328,354.451194)"><path fill-rule="nonzero" fill="#ff7e79" d="M.0,.0L.0,50.5L38.0,50.5L38.0,13.6L25.7,.0L.0,.0z"/><path stroke="#000000" d="M.0,.0L.0,50.5L38.0,50.5L38.0,13.6L25.7,.0L.0,.0zM38.0,13.6L25.7,13.6L25.7,.0" fill="none" stroke-width="1"/></g><g id="shape24" transform="translate(416.779528,146.600194)"><path fill-rule="nonzero" fill="#44bdad" d="M.0,.0L.0,50.5L38.0,50.5L38.0,13.6L25.7,.0L.0,.0z"/><path stroke="#000000" d="M.0,.0L.0,50.5L38.0,50.5L38.0,13.6L25.7,.0L.0,.0zM38.0,13.6L25.7,13.6L25.7,.0" fill="none" stroke-width="1"/></g><g id="shape25" transform="translate(416.779528,228.850194)"><path fill-rule="nonzero" fill="#ff7e79" d="M.0,.0L.0,50.5L38.0,50.5L38.0,13.6L25.7,.0L.0,.0z"/><path stroke="#000000" d="M.0,.0L.0,50.5L38.0,50.5L38.0,13.6L25.7,.0L.0,.0zM38.0,13.6L25.7,13.6L25.7,.0" fill="none" stroke-width="1"/></g><g id="shape26" transform="translate(227.779528,269.350194)"><path stroke="#000000" d="M.0,.0L152.2,.0" fill="none" stroke-width="5.333330154418945"/><path stroke-linejoin="round" fill="none" stroke="#000000" d="M147.3,-10.2L157.5,.0L147.3,10.2" stroke-width="5.33333" stroke-linecap="round"/></g><path id="shape27" transform="translate(113.779328,310.100194)" stroke="#c2c2c2" d="M.0,.0L108.0,.0C116.3,.0,123.0,-6.7,123.0,-15.0L123.0,-36.8C123.0,-39.0,121.2,-40.8,119.0,-40.8L114.0,-40.8" fill="none" stroke-width="1"/><path id="shape28" transform="translate(113.779328,379.701194)" stroke="#c2c2c2" d="M.0,.0L107.0,.0C115.3,.0,122.0,-6.7,122.0,-15.0L122.0,-107.4C122.0,-109.0,120.7,-110.4,119.0,-110.4L114.0,-110.4" fill="none" stroke-width="1"/><g id="shape29" transform="translate(674.279528,269.350194)"><path stroke="#000000" d="M.0,.0L78.8,.0C78.8,.0,78.8,.0,78.8,.0L78.8,1.3C78.8,1.3,78.8,1.3,78.8,1.3L153.5,1.3" fill="none" stroke-width="4"/><path stroke-linejoin="round" fill="none" stroke="#000000" d="M148.5,-7.7L157.5,1.3L148.5,10.3" stroke-width="4" stroke-linecap="round"/></g><path id="shape30" transform="translate(454.779528,171.850194)" stroke="#696969" d="M.0,.0L213.0,.0C221.3,.0,228.0,6.7,228.0,15.0L228.0,93.5C228.0,95.7,226.2,97.5,224.0,97.5L219.5,97.5" fill="none" stroke-width="1"/><path id="shape31" transform="translate(454.779528,261.515564)" stroke="#595959" d="M.0,.0L225.0,.0C226.7,.0,228.0,1.3,228.0,3.0L228.0,4.8C228.0,6.5,226.7,7.8,225.0,7.8L219.5,7.8" fill="none" stroke-width="1"/><g id="shape32" transform="translate(246.529528,209.850194)"><text style="fill:#000000;font-family:Delius;font-size:18.00pt;font-weight:bold" xml:space="preserve"><tspan x="19.5" y="28.0">git add</tspan></text></g><g id="shape33" transform="translate(693.029528,190.850194)"><text style="fill:#000000;font-family:Delius;font-size:18.00pt;font-weight:bold" xml:space="preserve"><tspan x="45.5" y="32.0">git </tspan><tspan x="17.0" y="62.0">commit</tspan></text></g><g id="shape34" transform="translate(693.029528,360.701194)"><text style="fill:#9b9b9b;font-family:Delius;font-size:18.00pt;font-weight:bold" xml:space="preserve"><tspan x="4.0" y="28.0" style="text-decoration:underline">Nh-em0n</tspan></text></g><g id="shape35" transform="translate(1223.519685,58.350194)"><path fill-rule="nonzero" fill="#8dc0ff" d="M.0,.0L907.0,.0L907.0,227.0L.0,227.0L.0,.0z"/><text style="fill:#191919;font-family:Delius;font-size:18.00pt;font-weight:bold" xml:space="preserve"><tspan x="23.0" y="62.5">commit 613e2b919ac0fa1042cb87bb64c68f50aac5e5bf (HEAD -> master)                                                                                                    </tspan><tspan x="184.0" y="92.5">Author: Nh-em0n &lt;nhemon2043@gmail.com>                                                                                                                               </tspan><tspan x="227.0" y="122.5">Date:   Thu Sep 4 21:39:15 2025 +0600                                                                                                                                </tspan><tspan x="453.5" y="152.5">                                                                                                                                                                     </tspan><tspan x="317.0" y="182.5">    update note content </tspan></text></g><path id="shape36" transform="translate(997.301528,197.882911)" stroke="#000000" d="M.0,.0L226.2,-132.0" fill="none" stroke-width="4"/><path id="shape37" transform="translate(1224.426685,285.350194)" stroke="#000000" d="M.0,.0L-227.1,-85.5" fill="none" stroke-width="5.333333492279053"/><g id="shape38" transform="translate(1100.519685,146.600194)"><text style="fill:#000000;font-family:Delius;font-size:18.00pt;font-weight:bold" xml:space="preserve"><tspan x="25.0" y="47.0">git log</tspan></text></g></g></svg>