<svg xmlns:xlink="http://www.w3.org/1999/xlink" height="487" viewBox="0 0 818 487" xmlns:ev="http://www.w3.org/2001/xml-events" xmlns="http://www.w3.org/2000/svg" width="818"><defs/><g id="page1" transform="translate(5.5,5.5)"><rect height="477" y="0" x="0" fill="none" width="808"/><g id="group1" transform="translate(39.259843,150.475394)"><g id="shape2" transform="translate(624.285900,-35.475394)"><path fill-rule="nonzero" stroke-width="1" d="M36.0,.0L69.7,.0C89.6,.0,105.7,16.1,105.7,36.0L105.7,36.5C105.7,56.3,89.6,72.5,69.7,72.5L36.0,72.5C16.1,72.5,.0,56.3,.0,36.5L.0,36.0C.0,16.1,16.1,.0,36.0,.0z" stroke="#21675e" fill="#002060"/><text xml:space="preserve" style="fill:#ffffff;font-family:Delius;font-size:18.00pt;font-weight:bold"><tspan y="45.2" x="19.4">HEAD</tspan></text></g><path fill-rule="nonzero" stroke-width="2.333329916000366" d="M.0,49.0C.0,21.9,21.9,.0,49.0,.0C76.1,.0,98.0,21.9,98.0,49.0C98.0,76.1,76.1,98.0,49.0,98.0C21.9,98.0,.0,76.1,.0,49.0z" id="shape3" stroke="#2a7d72" fill="#d0f0ea" transform="translate(316.000000,189.500000)"/><g id="shape4" transform="translate(316.000000,238.500000)"><path stroke-width="2.666670083999634" d="M.0,.0L-50.4,.0" stroke="#379e90" fill="none"/><path stroke-width="1" d="M-60.0,.0L-48.7,6.5C-49.8,4.6,-50.4,2.4,-50.4,.0C-50.4,-2.4,-49.8,-4.6,-48.7,-6.5L-60.0,.0" stroke="#379e90" stroke-linecap="round" fill="#379e90"/></g><path fill-rule="nonzero" stroke-width="2.333329916000366" d="M.0,49.0C.0,21.9,21.9,.0,49.0,.0C76.1,.0,98.0,21.9,98.0,49.0C98.0,76.1,76.1,98.0,49.0,98.0C21.9,98.0,.0,76.1,.0,49.0z" id="shape5" stroke="#2a7d72" fill="#d0f0ea" transform="translate(158.000000,189.500000)"/><g id="shape6" transform="translate(158.000000,238.500000)"><path stroke-width="2.666670083999634" d="M.0,.0L-50.4,.0" stroke="#379e90" fill="none"/><path stroke-width="1" d="M-60.0,.0L-48.7,6.5C-49.8,4.6,-50.4,2.4,-50.4,.0C-50.4,-2.4,-49.8,-4.6,-48.7,-6.5L-60.0,.0" stroke="#379e90" stroke-linecap="round" fill="#379e90"/></g><path fill-rule="nonzero" stroke-width="2.333329916000366" d="M.0,49.0C.0,21.9,21.9,.0,49.0,.0C76.1,.0,98.0,21.9,98.0,49.0C98.0,76.1,76.1,98.0,49.0,98.0C21.9,98.0,.0,76.1,.0,49.0z" id="shape7" stroke="#2a7d72" fill="#d0f0ea" transform="translate(0.000000,189.500000)"/><path fill-rule="nonzero" stroke-width="2.333329916000366" d="M.0,49.0C.0,21.9,21.9,.0,49.0,.0C76.1,.0,98.0,21.9,98.0,49.0C98.0,76.1,76.1,98.0,49.0,98.0C21.9,98.0,.0,76.1,.0,49.0z" id="shape8" stroke="#954744" fill="#ffd8d7" transform="translate(474.000000,189.500000)"/><path fill-rule="nonzero" stroke-width="2.333329916000366" d="M.0,49.0C.0,21.9,21.9,.0,49.0,.0C76.1,.0,98.0,21.9,98.0,49.0C98.0,76.1,76.1,98.0,49.0,98.0C21.9,98.0,.0,76.1,.0,49.0z" id="shape9" stroke="#954744" fill="#ffd8d7" transform="translate(632.000000,189.500000)"/><g id="shape10" transform="translate(305.000000,116.524606)"><path fill-rule="nonzero" stroke-width="1" d="M7.0,.0L113.0,.0C116.9,.0,120.0,3.1,120.0,7.0L120.0,44.0C120.0,47.8,116.9,51.0,113.0,51.0L7.0,51.0C3.1,51.0,.0,47.8,.0,44.0L.0,7.0C.0,3.1,3.1,.0,7.0,.0z" stroke="#21675e" fill="#21675e"/><text xml:space="preserve" style="fill:#ffffff;font-family:Delius;font-size:18.00pt;font-weight:bold"><tspan y="34.5" x="18.5">master</tspan></text></g><g id="shape11" transform="translate(610.000000,125.500000)"><path fill-rule="nonzero" stroke-width="1" d="M7.0,.0L113.0,.0C116.9,.0,120.0,3.1,120.0,7.0L120.0,40.0C120.0,43.9,116.9,47.0,113.0,47.0L7.0,47.0C3.1,47.0,.0,43.9,.0,40.0L.0,7.0C.0,3.1,3.1,.0,7.0,.0z" stroke="#7c3a37" fill="#7c3a37"/><text xml:space="preserve" style="fill:#ffffff;font-family:Delius;font-size:18.00pt;font-weight:bold"><tspan y="32.5" x="17.5">feature</tspan></text></g><g id="shape12" transform="translate(474.000000,238.500000)"><path stroke-width="2.666670083999634" d="M.0,.0L-50.4,.0" stroke="#e16e6a" fill="none"/><path stroke-width="1" d="M-60.0,.0L-48.7,6.5C-49.8,4.6,-50.4,2.4,-50.4,.0C-50.4,-2.4,-49.8,-4.6,-48.7,-6.5L-60.0,.0" stroke="#e16e6a" stroke-linecap="round" fill="#e16e6a"/></g><g id="shape13" transform="translate(632.000000,238.500000)"><path stroke-width="2.666670083999634" d="M.0,.0L-50.4,.0" stroke="#e16e6a" fill="none"/><path stroke-width="1" d="M-60.0,.0L-48.7,6.5C-49.8,4.6,-50.4,2.4,-50.4,.0C-50.4,-2.4,-49.8,-4.6,-48.7,-6.5L-60.0,.0" stroke="#e16e6a" stroke-linecap="round" fill="#e16e6a"/></g><path fill-rule="nonzero" stroke-width="1" d="M59.0,21.8L17.4,21.8L17.4,29.0L.0,14.5L17.4,.0L17.4,7.3L59.0,7.3L59.0,21.8z" id="shape14" stroke="#002060" fill="#002060" transform="matrix(0.000000,-1.000000,1.000000,0.000000,660.000000,115.500000)"/></g><g id="shape15" transform="translate(196.759843,40.000000)"><path fill-rule="nonzero" stroke-width="3" d="M.0,.0L415.0,.0L415.0,62.2L.0,62.2L.0,.0z" stroke="#e9f8f5" fill="#ffecd1"/><text xml:space="preserve" style="fill:#191919;font-family:Delius;font-size:24.00pt;font-weight:bold"><tspan y="42.6" x="30.0">Branches Not Diverged</tspan></text></g><g id="shape16" transform="translate(674.000000,28.000000)"><text xml:space="preserve" style="fill:#868686;font-family:Delius;font-size:12.00pt;font-weight:bold"><tspan y="25.0" x="21.5">Nh-em0n</tspan></text></g></g></svg>